STARTFONT 2.1
FONT -HP-Sung-Medium-R-Normal--34-340-75-75-C-170-HP-TChineseBig5
SIZE 34 75 75
FONTBOUNDINGBOX 17 34 0 -2

STARTPROPERTIES 23
FONTNAME_REGISTRY ""
FOUNDRY "HP"
FAMILY_NAME "Sung"
WEIGHT_NAME "Medium"
SLANT "R"
SETWIDTH_NAME "Normal"
ADD_STYLE_NAME ""
PIXEL_SIZE 34
POINT_SIZE 340
RESOLUTION_X 75
RESOLUTION_Y 75
SPACING "C"
AVERAGE_WIDTH 170
CHARSET_REGISTRY "HP"
CHARSET_ENCODING "TChineseBig5"
COPYRIGHT "Copyright (c) 1994 Hewlett-Packard Company."
_HP_ASXVERSION "@(#) ASX 3.00 $Revision: 13.9 $ sung34a"
WEIGHT 10
X_HEIGHT 32
QUAD_WIDTH 17
DEFAULT_CHAR 32
FONT_DESCENT 2
FONT_ASCENT 32
ENDPROPERTIES

CHARS 256

STARTCHAR iso0
ENCODING 0
SWIDTH 480 0
DWIDTH 17 0
BBX 17 34 0 -2
BITMAP
000000
000000
000000
000000
38E000
184000
1C4000
144000
164000
124000
134000
114000
11C000
10C000
38E000
000000
01E700
00C200
00C200
00C200
00C200
00C200
00C200
00C200
00C200
006400
003800
000000
000000
000000
000000
000000
000000
000000
ENDCHAR

STARTCHAR iso1
ENCODING 1
SWIDTH 480 0
DWIDTH 17 0
BBX 17 34 0 -2
BITMAP
000000
000000
000000
000000
0F2000
10A000
306000
302000
180000
070000
01C000
206000
306000
304000
2F8000
000000
01EF00
00C600
00C600
00C600
00C600
00FE00
00C600
00C600
00C600
00C600
01EF00
000000
000000
000000
000000
000000
000000
000000
ENDCHAR

STARTCHAR iso2
ENCODING 2
SWIDTH 480 0
DWIDTH 17 0
BBX 17 34 0 -2
BITMAP
000000
000000
000000
000000
0F2000
10A000
306000
302000
180000
070000
01C000
206000
306000
304000
2F8000
000000
01E300
00C100
006200
006400
003800
001000
003800
004C00
008C00
010600
018F00
000000
000000
000000
000000
000000
000000
000000
ENDCHAR

STARTCHAR iso3
ENCODING 3
SWIDTH 480 0
DWIDTH 17 0
BBX 17 34 0 -2
BITMAP
000000
000000
000000
000000
3FE000
186000
182000
180000
188000
1F8000
188000
180000
182000
186000
3FE000
000000
01E300
00C100
006200
006400
003800
001000
003800
004C00
008C00
010600
018F00
000000
000000
000000
000000
000000
000000
000000
ENDCHAR

STARTCHAR iso4
ENCODING 4
SWIDTH 480 0
DWIDTH 17 0
BBX 17 34 0 -2
BITMAP
000000
000000
000000
000000
3FE000
186000
182000
180000
188000
1F8000
188000
180000
182000
186000
3FE000
000000
03FF00
033300
023100
003000
003000
003000
003000
003000
003000
003000
007800
000000
000000
000000
000000
000000
000000
000000
ENDCHAR

STARTCHAR iso5
ENCODING 5
SWIDTH 480 0
DWIDTH 17 0
BBX 17 34 0 -2
BITMAP
000000
000000
000000
000000
3FE000
186000
182000
180000
188000
1F8000
188000
180000
182000
186000
3FE000
000000
007C00
00C600
018300
018300
018300
018300
01B300
01CB00
00CE00
007C00
000500
000200
000000
000000
000000
000000
000000
000000
ENDCHAR

STARTCHAR iso6
ENCODING 6
SWIDTH 480 0
DWIDTH 17 0
BBX 17 34 0 -2
BITMAP
000000
000000
000000
000000
020000
070000
070000
070000
098000
098000
098000
1FC000
10C000
10C000
39E000
000000
01E700
00C200
00C400
00C800
00F000
00F000
00D800
00CC00
00C600
00C300
01E780
000000
000000
000000
000000
000000
000000
000000
ENDCHAR

STARTCHAR iso7
ENCODING 7
SWIDTH 480 0
DWIDTH 17 0
BBX 17 34 0 -2
BITMAP
000000
000000
000000
000000
000000
01C000
036000
022000
063000
063000
041000
041000
0C1800
0C1800
080800
080800
080800
080800
080800
080800
180C00
1FFC00
022000
022000
036000
01C000
000000
000000
000000
000000
000000
000000
000000
000000
ENDCHAR

STARTCHAR iso8
ENCODING 8
SWIDTH 480 0
DWIDTH 17 0
BBX 17 34 0 -2
BITMAP
000000
000000
000000
000000
3F8000
18C000
186000
186000
184000
1F8000
184000
186000
186000
18C000
3F8000
000000
007900
008500
018300
018100
00C000
003800
000E00
010300
018300
018200
017C00
000000
000000
000000
000000
000000
000000
000000
ENDCHAR

STARTCHAR iso9
ENCODING 9
SWIDTH 480 0
DWIDTH 17 0
BBX 17 34 0 -2
BITMAP
000000
000000
000000
000000
3DE000
18C000
18C000
18C000
18C000
1FC000
18C000
18C000
18C000
18C000
3DE000
000000
03FF00
033300
023100
003000
003000
003000
003000
003000
003000
003000
007800
000000
000000
000000
000000
000000
000000
000000
ENDCHAR

STARTCHAR isoA
ENCODING 10
SWIDTH 480 0
DWIDTH 17 0
BBX 17 34 0 -2
BITMAP
000000
000000
000000
000000
3C0000
180000
180000
180000
180000
180000
180000
182000
182000
186000
3FE000
000000
01FF00
00C300
00C100
00C000
00C400
00FC00
00C400
00C000
00C000
00C000
01E000
000000
000000
000000
000000
000000
000000
000000
ENDCHAR

STARTCHAR isoB
ENCODING 11
SWIDTH 480 0
DWIDTH 17 0
BBX 17 34 0 -2
BITMAP
000000
000000
000000
000000
3CE000
184000
184000
184000
0C8000
0C8000
0C8000
070000
070000
070000
020000
000000
03FF00
033300
023100
003000
003000
003000
003000
003000
003000
003000
007800
000000
000000
000000
000000
000000
000000
000000
ENDCHAR

STARTCHAR isoC
ENCODING 12
SWIDTH 480 0
DWIDTH 17 0
BBX 17 34 0 -2
BITMAP
000000
000000
000000
000000
3FE000
186000
182000
180000
188000
1F8000
188000
180000
180000
180000
3C0000
000000
01FF00
00C300
00C100
00C000
00C400
00FC00
00C400
00C000
00C000
00C000
01E000
000000
000000
000000
000000
000000
000000
000000
ENDCHAR

STARTCHAR isoD
ENCODING 13
SWIDTH 480 0
DWIDTH 17 0
BBX 17 34 0 -2
BITMAP
000000
000000
000000
000000
0F2000
18A000
186000
302000
300000
300000
300000
302000
182000
184000
0F8000
000000
03F800
018C00
018600
018600
018C00
01F800
01B000
019800
018C00
018600
03CF00
000000
000000
000000
000000
000000
000000
000000
ENDCHAR

STARTCHAR isoE
ENCODING 14
SWIDTH 480 0
DWIDTH 17 0
BBX 17 34 0 -2
BITMAP
000000
000000
000000
000000
0F2000
10A000
306000
302000
180000
070000
01C000
206000
306000
304000
2F8000
000000
003800
00C600
008200
018300
018300
018300
018300
018300
008200
00C600
003800
000000
000000
000000
000000
000000
000000
000000
ENDCHAR

STARTCHAR isoF
ENCODING 15
SWIDTH 480 0
DWIDTH 17 0
BBX 17 34 0 -2
BITMAP
000000
000000
000000
000000
0F2000
10A000
306000
302000
180000
070000
01C000
206000
306000
304000
2F8000
000000
007800
003000
003000
003000
003000
003000
003000
003000
003000
003000
007800
000000
000000
000000
000000
000000
000000
000000
ENDCHAR

STARTCHAR iso10
ENCODING 16
SWIDTH 480 0
DWIDTH 17 0
BBX 17 34 0 -2
BITMAP
000000
000000
000000
000000
3F8000
18C000
186000
186000
186000
186000
186000
186000
186000
18C000
3F8000
000000
01E000
00C000
00C000
00C000
00C000
00C000
00C000
00C000
00C100
00C300
01FF00
000000
000000
000000
000000
000000
000000
000000
ENDCHAR

STARTCHAR iso11
ENCODING 17
SWIDTH 480 0
DWIDTH 17 0
BBX 17 34 0 -2
BITMAP
000000
000000
000000
000000
3F8000
18C000
186000
186000
186000
186000
186000
186000
186000
18C000
3F8000
000000
001800
003800
007800
001800
001800
001800
001800
001800
001800
001800
007E00
000000
000000
000000
000000
000000
000000
000000
ENDCHAR

STARTCHAR iso12
ENCODING 18
SWIDTH 480 0
DWIDTH 17 0
BBX 17 34 0 -2
BITMAP
000000
000000
000000
000000
3F8000
18C000
186000
186000
186000
186000
186000
186000
186000
18C000
3F8000
000000
007C00
00C600
018300
018300
00C600
000C00
003000
00C000
018100
01FF00
01FF00
000000
000000
000000
000000
000000
000000
000000
ENDCHAR

STARTCHAR iso13
ENCODING 19
SWIDTH 480 0
DWIDTH 17 0
BBX 17 34 0 -2
BITMAP
000000
000000
000000
000000
3F8000
18C000
186000
186000
186000
186000
186000
186000
186000
18C000
3F8000
000000
007C00
00C600
018300
018300
000600
007C00
000600
018300
018300
00C600
007C00
000000
000000
000000
000000
000000
000000
000000
ENDCHAR

STARTCHAR iso14
ENCODING 20
SWIDTH 480 0
DWIDTH 17 0
BBX 17 34 0 -2
BITMAP
000000
000000
000000
000000
3F8000
18C000
186000
186000
186000
186000
186000
186000
186000
18C000
3F8000
000000
000C00
001C00
003C00
006C00
00CC00
018C00
018C00
01FE00
000C00
000C00
001E00
000000
000000
000000
000000
000000
000000
000000
ENDCHAR

STARTCHAR iso15
ENCODING 21
SWIDTH 480 0
DWIDTH 17 0
BBX 17 34 0 -2
BITMAP
000000
000000
000000
000000
38E000
184000
1C4000
144000
164000
124000
134000
114000
11C000
10C000
38E000
000000
01E700
00C200
00C400
00C800
00F000
00F000
00D800
00CC00
00C600
00C300
01E780
000000
000000
000000
000000
000000
000000
000000
ENDCHAR

STARTCHAR iso16
ENCODING 22
SWIDTH 480 0
DWIDTH 17 0
BBX 17 34 0 -2
BITMAP
000000
000000
000000
000000
0F2000
10A000
306000
302000
180000
070000
01C000
206000
306000
304000
2F8000
000000
01E700
00C200
00C200
006400
006400
003C00
003800
001800
001800
001800
003C00
000000
000000
000000
000000
000000
000000
000000
ENDCHAR

STARTCHAR iso17
ENCODING 23
SWIDTH 480 0
DWIDTH 17 0
BBX 17 34 0 -2
BITMAP
000000
000000
000000
000000
3FE000
186000
182000
180000
188000
1F8000
188000
180000
182000
186000
3FE000
000000
01FC00
00C600
00C300
00C300
00C200
00FC00
00C200
00C300
00C300
00C600
01FC00
000000
000000
000000
000000
000000
000000
000000
ENDCHAR

STARTCHAR iso18
ENCODING 24
SWIDTH 480 0
DWIDTH 17 0
BBX 17 34 0 -2
BITMAP
000000
000000
000000
000000
0F2000
18A000
186000
302000
300000
300000
300000
302000
182000
184000
0F8000
000000
01C700
00C200
00E200
00A200
00B200
009200
009A00
008A00
008E00
008600
01C700
000000
000000
000000
000000
000000
000000
000000
ENDCHAR

STARTCHAR iso19
ENCODING 25
SWIDTH 480 0
DWIDTH 17 0
BBX 17 34 0 -2
BITMAP
000000
000000
000000
000000
3FE000
186000
182000
180000
188000
1F8000
188000
180000
182000
186000
3FE000
000000
01C700
00C600
00C600
00EE00
00AE00
00BE00
009600
009600
008600
008600
01CF00
000000
000000
000000
000000
000000
000000
000000
ENDCHAR

STARTCHAR iso1A
ENCODING 26
SWIDTH 480 0
DWIDTH 17 0
BBX 17 34 0 -2
BITMAP
000000
000000
000000
000000
0F2000
10A000
306000
302000
180000
070000
01C000
206000
306000
304000
2F8000
000000
01FC00
00C600
00C300
00C300
00C200
00FC00
00C200
00C300
00C300
00C600
01FC00
000000
000000
000000
000000
000000
000000
000000
ENDCHAR

STARTCHAR iso1B
ENCODING 27
SWIDTH 480 0
DWIDTH 17 0
BBX 17 34 0 -2
BITMAP
000000
000000
000000
000000
3FE000
186000
182000
180000
188000
1F8000
188000
180000
182000
186000
3FE000
000000
007900
00C500
00C300
018100
018000
018000
018000
018100
00C100
00C200
007C00
000000
000000
000000
000000
000000
000000
000000
ENDCHAR

STARTCHAR iso1C
ENCODING 28
SWIDTH 480 0
DWIDTH 17 0
BBX 17 34 0 -2
BITMAP
000000
000000
000000
000000
3FE000
186000
182000
180000
188000
1F8000
188000
180000
180000
180000
3C0000
000000
007900
008500
018300
018100
00C000
003800
000E00
010300
018300
018200
017C00
000000
000000
000000
000000
000000
000000
000000
ENDCHAR

STARTCHAR iso1D
ENCODING 29
SWIDTH 480 0
DWIDTH 17 0
BBX 17 34 0 -2
BITMAP
000000
000000
000000
000000
0F2000
18A000
186000
302000
300000
300000
30E000
306000
186000
18A000
0F2000
000000
007900
008500
018300
018100
00C000
003800
000E00
010300
018300
018200
017C00
000000
000000
000000
000000
000000
000000
000000
ENDCHAR

STARTCHAR iso1E
ENCODING 30
SWIDTH 480 0
DWIDTH 17 0
BBX 17 34 0 -2
BITMAP
000000
000000
000000
000000
3F8000
18C000
186000
186000
18C000
1F8000
1B0000
198000
18C000
186000
3CF000
000000
007900
008500
018300
018100
00C000
003800
000E00
010300
018300
018200
017C00
000000
000000
000000
000000
000000
000000
000000
ENDCHAR

STARTCHAR iso1F
ENCODING 31
SWIDTH 480 0
DWIDTH 17 0
BBX 17 34 0 -2
BITMAP
000000
000000
000000
000000
3CE000
184000
184000
184000
184000
184000
184000
184000
184000
0C8000
070000
000000
007900
008500
018300
018100
00C000
003800
000E00
010300
018300
018200
017C00
000000
000000
000000
000000
000000
000000
000000
ENDCHAR

STARTCHAR iso20
ENCODING 32
SWIDTH 480 0
DWIDTH 17 0
BBX 17 34 0 -2
BITMAP
000000
000000
000000
000000
000000
000000
000000
000000
000000
000000
000000
000000
000000
000000
000000
000000
000000
000000
000000
000000
000000
000000
000000
000000
000000
000000
000000
000000
000000
000000
000000
000000
000000
000000
ENDCHAR

STARTCHAR iso21
ENCODING 33
SWIDTH 480 0
DWIDTH 17 0
BBX 17 34 0 -2
BITMAP
000000
000000
000000
000000
008000
01C000
01C000
01C000
01C000
01C000
01C000
01C000
01C000
01C000
01C000
01C000
01C000
01C000
008000
008000
008000
000000
000000
008000
01C000
01C000
008000
000000
000000
000000
000000
000000
000000
000000
ENDCHAR

STARTCHAR iso22
ENCODING 34
SWIDTH 480 0
DWIDTH 17 0
BBX 17 34 0 -2
BITMAP
000000
000000
000000
061800
0F3C00
061800
061800
041000
082000
000000
000000
000000
000000
000000
000000
000000
000000
000000
000000
000000
000000
000000
000000
000000
000000
000000
000000
000000
000000
000000
000000
000000
000000
000000
ENDCHAR

STARTCHAR iso23
ENCODING 35
SWIDTH 480 0
DWIDTH 17 0
BBX 17 34 0 -2
BITMAP
000000
000000
000000
000000
033000
033000
033000
033000
033C00
03FC00
0FF000
0F3000
033000
033000
033000
033000
033C00
03FC00
0FF000
0F3000
033000
033000
033000
033000
033000
033000
033000
000000
000000
000000
000000
000000
000000
000000
ENDCHAR

STARTCHAR iso24
ENCODING 36
SWIDTH 480 0
DWIDTH 17 0
BBX 17 34 0 -2
BITMAP
000000
000000
000000
00C000
00C000
03F000
04C800
08C400
08C400
08CC00
0CCC00
06C000
07C000
03C000
01E000
00F000
00F800
00D800
00CC00
00C400
0CC400
0CC400
08C400
08C400
04C800
03F000
00C000
00C000
000000
000000
000000
000000
000000
000000
ENDCHAR

STARTCHAR iso25
ENCODING 37
SWIDTH 480 0
DWIDTH 17 0
BBX 17 34 0 -2
BITMAP
000000
000000
000000
000000
0E0400
1B0800
1B0800
1B1000
1B1000
1B2000
1B2000
1B4000
1B4000
0E4000
008000
008000
013800
016C00
016C00
026C00
026C00
046C00
046C00
086C00
086C00
103800
000000
000000
000000
000000
000000
000000
000000
000000
ENDCHAR

STARTCHAR iso26
ENCODING 38
SWIDTH 480 0
DWIDTH 17 0
BBX 17 34 0 -2
BITMAP
000000
000000
000000
000000
030000
048000
0C8000
0C8000
0C8000
0C8000
070000
030000
038E00
078400
058400
0CC400
0C4400
086400
186400
182400
183400
183400
183800
181800
0C3800
0C6D00
07C600
000000
000000
000000
000000
000000
000000
000000
ENDCHAR

STARTCHAR iso27
ENCODING 39
SWIDTH 480 0
DWIDTH 17 0
BBX 17 34 0 -2
BITMAP
000000
000000
000000
030000
078000
030000
030000
020000
040000
000000
000000
000000
000000
000000
000000
000000
000000
000000
000000
000000
000000
000000
000000
000000
000000
000000
000000
000000
000000
000000
000000
000000
000000
000000
ENDCHAR

STARTCHAR iso28
ENCODING 40
SWIDTH 480 0
DWIDTH 17 0
BBX 17 34 0 -2
BITMAP
000000
000000
000000
001000
002000
006000
004000
00C000
00C000
008000
018000
018000
018000
018000
018000
018000
018000
018000
018000
018000
008000
00C000
00C000
004000
006000
002000
001000
000000
000000
000000
000000
000000
000000
000000
ENDCHAR

STARTCHAR iso29
ENCODING 41
SWIDTH 480 0
DWIDTH 17 0
BBX 17 34 0 -2
BITMAP
000000
000000
000000
040000
020000
030000
010000
018000
018000
008000
00C000
00C000
00C000
00C000
00C000
00C000
00C000
00C000
00C000
00C000
008000
018000
018000
010000
030000
020000
040000
000000
000000
000000
000000
000000
000000
000000
ENDCHAR

STARTCHAR iso2A
ENCODING 42
SWIDTH 480 0
DWIDTH 17 0
BBX 17 34 0 -2
BITMAP
000000
000000
000000
000000
000000
000000
000000
000000
000000
00C000
00C000
18C600
1CCE00
0EDC00
03F000
00C000
03F000
0EDC00
1CCE00
18C600
00C000
00C000
000000
000000
000000
000000
000000
000000
000000
000000
000000
000000
000000
000000
ENDCHAR

STARTCHAR iso2B
ENCODING 43
SWIDTH 480 0
DWIDTH 17 0
BBX 17 34 0 -2
BITMAP
000000
000000
000000
000000
000000
000000
000000
000000
000000
00C000
00C000
00C000
00C000
00C000
00C000
1FFE00
00C000
00C000
00C000
00C000
00C000
00C000
000000
000000
000000
000000
000000
000000
000000
000000
000000
000000
000000
000000
ENDCHAR

STARTCHAR iso2C
ENCODING 44
SWIDTH 480 0
DWIDTH 17 0
BBX 17 34 0 -2
BITMAP
000000
000000
000000
000000
000000
000000
000000
000000
000000
000000
000000
000000
000000
000000
000000
000000
000000
000000
000000
000000
000000
000000
000000
000000
000000
060000
0F0000
060000
060000
0C0000
000000
000000
000000
000000
ENDCHAR

STARTCHAR iso2D
ENCODING 45
SWIDTH 480 0
DWIDTH 17 0
BBX 17 34 0 -2
BITMAP
000000
000000
000000
000000
000000
000000
000000
000000
000000
000000
000000
000000
000000
000000
000000
000000
000000
000000
0FFC00
000000
000000
000000
000000
000000
000000
000000
000000
000000
000000
000000
000000
000000
000000
000000
ENDCHAR

STARTCHAR iso2E
ENCODING 46
SWIDTH 480 0
DWIDTH 17 0
BBX 17 34 0 -2
BITMAP
000000
000000
000000
000000
000000
000000
000000
000000
000000
000000
000000
000000
000000
000000
000000
000000
000000
000000
000000
000000
000000
000000
000000
000000
000000
060000
0F0000
060000
000000
000000
000000
000000
000000
000000
ENDCHAR

STARTCHAR iso2F
ENCODING 47
SWIDTH 480 0
DWIDTH 17 0
BBX 17 34 0 -2
BITMAP
000000
000000
000000
000000
000600
000400
000C00
000800
001800
001000
003000
002000
006000
004000
00C000
008000
018000
010000
030000
020000
060000
040000
0C0000
080000
180000
100000
000000
000000
000000
000000
000000
000000
000000
000000
ENDCHAR

STARTCHAR iso30
ENCODING 48
SWIDTH 480 0
DWIDTH 17 0
BBX 17 34 0 -2
BITMAP
000000
000000
000000
000000
01C000
063000
063000
0C1800
180C00
180C00
180C00
180C00
180C00
180C00
180C00
180C00
180C00
180C00
180C00
180C00
180C00
180C00
180C00
0C1800
063000
063000
01C000
000000
000000
000000
000000
000000
000000
000000
ENDCHAR

STARTCHAR iso31
ENCODING 49
SWIDTH 480 0
DWIDTH 17 0
BBX 17 34 0 -2
BITMAP
000000
000000
000000
000000
00C000
00C000
01C000
07C000
00C000
00C000
00C000
00C000
00C000
00C000
00C000
00C000
00C000
00C000
00C000
00C000
00C000
00C000
00C000
00C000
00C000
00C000
07F800
000000
000000
000000
000000
000000
000000
000000
ENDCHAR

STARTCHAR iso32
ENCODING 50
SWIDTH 480 0
DWIDTH 17 0
BBX 17 34 0 -2
BITMAP
000000
000000
000000
000000
03E000
063000
0C1800
0C1800
180C00
180C00
180C00
1C0C00
0C0C00
001800
001800
003000
006000
00C000
018000
030000
060000
040000
0C0000
080400
180400
1FFC00
1FFC00
000000
000000
000000
000000
000000
000000
000000
ENDCHAR

STARTCHAR iso33
ENCODING 51
SWIDTH 480 0
DWIDTH 17 0
BBX 17 34 0 -2
BITMAP
000000
000000
000000
000000
01C000
067000
0C1800
180C00
180C00
180C00
000C00
001800
001800
003000
03E000
03C000
003000
001800
000C00
000C00
000C00
000C00
180C00
180C00
181800
0C3800
03E000
000000
000000
000000
000000
000000
000000
000000
ENDCHAR

STARTCHAR iso34
ENCODING 52
SWIDTH 480 0
DWIDTH 17 0
BBX 17 34 0 -2
BITMAP
000000
000000
000000
000000
003000
003000
007000
007000
00F000
00B000
00B000
01B000
013000
033000
023000
063000
043000
0C3000
0C3000
083000
183000
1FFC00
003000
003000
003000
003000
00FC00
000000
000000
000000
000000
000000
000000
000000
ENDCHAR

STARTCHAR iso35
ENCODING 53
SWIDTH 480 0
DWIDTH 17 0
BBX 17 34 0 -2
BITMAP
000000
000000
000000
000000
1FFC00
1FF800
100000
100000
100000
100000
100000
100000
100000
13E000
1E3000
1C1800
101C00
000C00
000C00
000C00
000C00
000C00
000C00
181C00
181800
0C7000
07C000
000000
000000
000000
000000
000000
000000
000000
ENDCHAR

STARTCHAR iso36
ENCODING 54
SWIDTH 480 0
DWIDTH 17 0
BBX 17 34 0 -2
BITMAP
000000
000000
000000
000000
01C000
063000
0C1800
0C0C00
180C00
180C00
180000
180000
180000
180000
19C000
1E3000
1C1800
181800
180C00
180C00
180C00
180C00
180C00
0C1800
0C1800
063000
01C000
000000
000000
000000
000000
000000
000000
000000
ENDCHAR

STARTCHAR iso37
ENCODING 55
SWIDTH 480 0
DWIDTH 17 0
BBX 17 34 0 -2
BITMAP
000000
000000
000000
000000
1FFC00
1FFC00
100C00
100C00
101800
001000
003000
002000
006000
004000
00C000
008000
018000
018000
010000
030000
030000
030000
030000
030000
030000
030000
030000
000000
000000
000000
000000
000000
000000
000000
ENDCHAR

STARTCHAR iso38
ENCODING 56
SWIDTH 480 0
DWIDTH 17 0
BBX 17 34 0 -2
BITMAP
000000
000000
000000
000000
01C000
063000
0C1800
0C1800
180C00
180C00
180C00
180C00
180C00
0C1800
063000
01C000
063000
0C1800
0C1800
180C00
180C00
180C00
180C00
180C00
0C1800
063000
01C000
000000
000000
000000
000000
000000
000000
000000
ENDCHAR

STARTCHAR iso39
ENCODING 57
SWIDTH 480 0
DWIDTH 17 0
BBX 17 34 0 -2
BITMAP
000000
000000
000000
000000
01C000
063000
0C1800
0C1800
180C00
180C00
180C00
180C00
180C00
0C0C00
0C1C00
063C00
01CC00
000C00
000C00
000C00
000C00
180C00
180C00
181800
0C1800
063000
01C000
000000
000000
000000
000000
000000
000000
000000
ENDCHAR

STARTCHAR iso3A
ENCODING 58
SWIDTH 480 0
DWIDTH 17 0
BBX 17 34 0 -2
BITMAP
000000
000000
000000
000000
000000
000000
000000
000000
000000
000000
000000
00C000
01E000
00C000
000000
000000
000000
000000
000000
000000
000000
000000
000000
000000
00C000
01E000
00C000
000000
000000
000000
000000
000000
000000
000000
ENDCHAR

STARTCHAR iso3B
ENCODING 59
SWIDTH 480 0
DWIDTH 17 0
BBX 17 34 0 -2
BITMAP
000000
000000
000000
000000
000000
000000
000000
000000
000000
000000
000000
00C000
01E000
00C000
000000
000000
000000
000000
000000
000000
000000
000000
000000
000000
00C000
01E000
00C000
00C000
018000
000000
000000
000000
000000
000000
ENDCHAR

STARTCHAR iso3C
ENCODING 60
SWIDTH 480 0
DWIDTH 17 0
BBX 17 34 0 -2
BITMAP
000000
000000
000000
000000
000000
000000
000000
000C00
001800
003000
006000
00C000
018000
030000
060000
0C0000
060000
030000
018000
00C000
006000
003000
001800
000C00
000000
000000
000000
000000
000000
000000
000000
000000
000000
000000
ENDCHAR

STARTCHAR iso3D
ENCODING 61
SWIDTH 480 0
DWIDTH 17 0
BBX 17 34 0 -2
BITMAP
000000
000000
000000
000000
000000
000000
000000
000000
000000
000000
000000
000000
000000
0FFC00
000000
000000
000000
000000
000000
000000
000000
0FFC00
000000
000000
000000
000000
000000
000000
000000
000000
000000
000000
000000
000000
ENDCHAR

STARTCHAR iso3E
ENCODING 62
SWIDTH 480 0
DWIDTH 17 0
BBX 17 34 0 -2
BITMAP
000000
000000
000000
000000
000000
000000
000000
0C0000
060000
030000
018000
00C000
006000
003000
001800
000C00
001800
003000
006000
00C000
018000
030000
060000
0C0000
000000
000000
000000
000000
000000
000000
000000
000000
000000
000000
ENDCHAR

STARTCHAR iso3F
ENCODING 63
SWIDTH 480 0
DWIDTH 17 0
BBX 17 34 0 -2
BITMAP
000000
000000
000000
000000
01C000
063000
0C1800
180C00
180C00
180C00
180C00
180C00
180C00
0C1800
001800
003000
006000
004000
008000
008000
008000
000000
000000
008000
01C000
01C000
008000
000000
000000
000000
000000
000000
000000
000000
ENDCHAR

STARTCHAR iso40
ENCODING 64
SWIDTH 480 0
DWIDTH 17 0
BBX 17 34 0 -2
BITMAP
000000
000000
000000
000000
01E000
021000
061800
0C0C00
080400
09C400
0B3400
0B3400
0B3400
0B3400
0B3400
0B3400
0B3400
0B3400
0B3400
0B3400
0B3400
0B3800
09D800
0C0000
060400
021800
01E000
000000
000000
000000
000000
000000
000000
000000
ENDCHAR

STARTCHAR iso41
ENCODING 65
SWIDTH 480 0
DWIDTH 17 0
BBX 17 34 0 -2
BITMAP
000000
000000
000000
000000
00C000
00C000
00C000
016000
016000
016000
016000
023000
023000
023000
023000
023000
041800
041800
041800
041800
07F800
080C00
080C00
080C00
080C00
080C00
1C1E00
000000
000000
000000
000000
000000
000000
000000
ENDCHAR

STARTCHAR iso42
ENCODING 66
SWIDTH 480 0
DWIDTH 17 0
BBX 17 34 0 -2
BITMAP
000000
000000
000000
000000
1FC000
0C6000
0C3000
0C1800
0C1800
0C1800
0C1800
0C1800
0C3000
0C6000
0FC000
0C3000
0C1800
0C0C00
0C0C00
0C0C00
0C0C00
0C0C00
0C0C00
0C0C00
0C1800
0C3000
1FC000
000000
000000
000000
000000
000000
000000
000000
ENDCHAR

STARTCHAR iso43
ENCODING 67
SWIDTH 480 0
DWIDTH 17 0
BBX 17 34 0 -2
BITMAP
000000
000000
000000
000000
01C400
063400
0C1C00
0C1C00
180C00
180C00
180400
180000
180000
180000
180000
180000
180000
180000
180000
180000
180400
180400
180C00
0C0800
0C1800
063000
01C000
000000
000000
000000
000000
000000
000000
000000
ENDCHAR

STARTCHAR iso44
ENCODING 68
SWIDTH 480 0
DWIDTH 17 0
BBX 17 34 0 -2
BITMAP
000000
000000
000000
000000
1F8000
0C6000
0C3000
0C1800
0C1800
0C0C00
0C0C00
0C0C00
0C0C00
0C0C00
0C0C00
0C0C00
0C0C00
0C0C00
0C0C00
0C0C00
0C0C00
0C0C00
0C1800
0C1800
0C3000
0C6000
1F8000
000000
000000
000000
000000
000000
000000
000000
ENDCHAR

STARTCHAR iso45
ENCODING 69
SWIDTH 480 0
DWIDTH 17 0
BBX 17 34 0 -2
BITMAP
000000
000000
000000
000000
1FFC00
0C0C00
0C0400
0C0400
0C0000
0C0000
0C0000
0C0000
0C2000
0C2000
0C6000
0FE000
0C6000
0C2000
0C2000
0C0000
0C0000
0C0000
0C0000
0C0400
0C0400
0C0C00
1FFC00
000000
000000
000000
000000
000000
000000
000000
ENDCHAR

STARTCHAR iso46
ENCODING 70
SWIDTH 480 0
DWIDTH 17 0
BBX 17 34 0 -2
BITMAP
000000
000000
000000
000000
1FFC00
0C0C00
0C0400
0C0400
0C0000
0C0000
0C0000
0C0000
0C2000
0C2000
0C6000
0FE000
0C6000
0C2000
0C2000
0C0000
0C0000
0C0000
0C0000
0C0000
0C0000
0C0000
1F0000
000000
000000
000000
000000
000000
000000
000000
ENDCHAR

STARTCHAR iso47
ENCODING 71
SWIDTH 480 0
DWIDTH 17 0
BBX 17 34 0 -2
BITMAP
000000
000000
000000
000000
03C400
063400
0C1C00
0C0C00
180C00
180400
180000
180000
180000
180000
180000
180000
180000
180000
180000
181E00
180C00
180C00
180C00
0C0C00
0C1C00
063400
03C400
000000
000000
000000
000000
000000
000000
000000
ENDCHAR

STARTCHAR iso48
ENCODING 72
SWIDTH 480 0
DWIDTH 17 0
BBX 17 34 0 -2
BITMAP
000000
000000
000000
000000
1E1E00
0C0C00
0C0C00
0C0C00
0C0C00
0C0C00
0C0C00
0C0C00
0C0C00
0C0C00
0C0C00
0FFC00
0C0C00
0C0C00
0C0C00
0C0C00
0C0C00
0C0C00
0C0C00
0C0C00
0C0C00
0C0C00
1E1E00
000000
000000
000000
000000
000000
000000
000000
ENDCHAR

STARTCHAR iso49
ENCODING 73
SWIDTH 480 0
DWIDTH 17 0
BBX 17 34 0 -2
BITMAP
000000
000000
000000
000000
03F000
00C000
00C000
00C000
00C000
00C000
00C000
00C000
00C000
00C000
00C000
00C000
00C000
00C000
00C000
00C000
00C000
00C000
00C000
00C000
00C000
00C000
03F000
000000
000000
000000
000000
000000
000000
000000
ENDCHAR

STARTCHAR iso4A
ENCODING 74
SWIDTH 480 0
DWIDTH 17 0
BBX 17 34 0 -2
BITMAP
000000
000000
000000
000000
01F800
006000
006000
006000
006000
006000
006000
006000
006000
006000
006000
006000
006000
006000
006000
006000
006000
006000
006000
0C6000
0C6000
044000
038000
000000
000000
000000
000000
000000
000000
000000
ENDCHAR

STARTCHAR iso4B
ENCODING 75
SWIDTH 480 0
DWIDTH 17 0
BBX 17 34 0 -2
BITMAP
000000
000000
000000
000000
1E3C00
0C1800
0C1000
0C3000
0C2000
0C6000
0C4000
0CC000
0C8000
0D8000
0F0000
0F0000
0F0000
0D8000
0D8000
0CC000
0CC000
0C6000
0C6000
0C3000
0C3000
0C1800
1E3C00
000000
000000
000000
000000
000000
000000
000000
ENDCHAR

STARTCHAR iso4C
ENCODING 76
SWIDTH 480 0
DWIDTH 17 0
BBX 17 34 0 -2
BITMAP
000000
000000
000000
000000
1E0000
0C0000
0C0000
0C0000
0C0000
0C0000
0C0000
0C0000
0C0000
0C0000
0C0000
0C0000
0C0000
0C0000
0C0000
0C0000
0C0000
0C0000
0C0000
0C0400
0C0400
0C0C00
1FFC00
000000
000000
000000
000000
000000
000000
000000
ENDCHAR

STARTCHAR iso4D
ENCODING 77
SWIDTH 480 0
DWIDTH 17 0
BBX 17 34 0 -2
BITMAP
000000
000000
000000
000000
1C0E00
0C0C00
0C0C00
0C0C00
0E1C00
0E1C00
0E1C00
0E1C00
0B2C00
0B2C00
0B2C00
0B2C00
09CC00
09CC00
09CC00
09CC00
088C00
088C00
088C00
080C00
080C00
080C00
1C1E00
000000
000000
000000
000000
000000
000000
000000
ENDCHAR

STARTCHAR iso4E
ENCODING 78
SWIDTH 480 0
DWIDTH 17 0
BBX 17 34 0 -2
BITMAP
000000
000000
000000
000000
1C0E00
0C0400
0E0400
0E0400
0E0400
0B0400
0B0400
0B0400
098400
098400
098400
08C400
086400
086400
086400
083400
083400
083C00
081C00
081C00
081C00
080C00
1C0E00
000000
000000
000000
000000
000000
000000
000000
ENDCHAR

STARTCHAR iso4F
ENCODING 79
SWIDTH 480 0
DWIDTH 17 0
BBX 17 34 0 -2
BITMAP
000000
000000
000000
000000
03E000
0C1800
0C1800
180C00
180C00
180C00
180C00
180C00
180C00
180C00
180C00
180C00
180C00
180C00
180C00
180C00
180C00
180C00
180C00
180C00
0C1800
0C1800
03E000
000000
000000
000000
000000
000000
000000
000000
ENDCHAR

STARTCHAR iso50
ENCODING 80
SWIDTH 480 0
DWIDTH 17 0
BBX 17 34 0 -2
BITMAP
000000
000000
000000
000000
1FE000
0C3000
0C1800
0C0C00
0C0C00
0C0C00
0C0C00
0C0C00
0C0C00
0C1800
0C3000
0FE000
0C0000
0C0000
0C0000
0C0000
0C0000
0C0000
0C0000
0C0000
0C0000
0C0000
1E0000
000000
000000
000000
000000
000000
000000
000000
ENDCHAR

STARTCHAR iso51
ENCODING 81
SWIDTH 480 0
DWIDTH 17 0
BBX 17 34 0 -2
BITMAP
000000
000000
000000
000000
03E000
0C1800
0C1800
180C00
180C00
180C00
180C00
180C00
180C00
180C00
180C00
180C00
180C00
180C00
180C00
180C00
19CC00
1A2C00
1A2C00
1A2C00
0E3800
0E3800
01E400
003C00
001800
000000
000000
000000
000000
000000
ENDCHAR

STARTCHAR iso52
ENCODING 82
SWIDTH 480 0
DWIDTH 17 0
BBX 17 34 0 -2
BITMAP
000000
000000
000000
000000
1FE000
0C3000
0C1800
0C0C00
0C0C00
0C0C00
0C0C00
0C0C00
0C0C00
0C1800
0C3000
0FE000
0D8000
0D8000
0CC000
0CC000
0C6000
0C6000
0C3000
0C3000
0C1800
0C1800
1E1E00
000000
000000
000000
000000
000000
000000
000000
ENDCHAR

STARTCHAR iso53
ENCODING 83
SWIDTH 480 0
DWIDTH 17 0
BBX 17 34 0 -2
BITMAP
000000
000000
000000
000000
01E400
061C00
0C0C00
180400
180400
180000
180000
180000
0C0000
070000
03C000
00E000
007000
003000
001800
000C00
000C00
000C00
200C00
300C00
301800
387000
27C000
000000
000000
000000
000000
000000
000000
000000
ENDCHAR

STARTCHAR iso54
ENCODING 84
SWIDTH 480 0
DWIDTH 17 0
BBX 17 34 0 -2
BITMAP
000000
000000
000000
000000
1FFE00
18C600
10C200
10C200
10C200
00C000
00C000
00C000
00C000
00C000
00C000
00C000
00C000
00C000
00C000
00C000
00C000
00C000
00C000
00C000
00C000
00C000
01E000
000000
000000
000000
000000
000000
000000
000000
ENDCHAR

STARTCHAR iso55
ENCODING 85
SWIDTH 480 0
DWIDTH 17 0
BBX 17 34 0 -2
BITMAP
000000
000000
000000
000000
1E0E00
0C0400
0C0400
0C0400
0C0400
0C0400
0C0400
0C0400
0C0400
0C0400
0C0400
0C0400
0C0400
0C0400
0C0400
0C0400
0C0400
0C0400
0C0400
0C0400
060800
031000
01E000
000000
000000
000000
000000
000000
000000
000000
ENDCHAR

STARTCHAR iso56
ENCODING 86
SWIDTH 480 0
DWIDTH 17 0
BBX 17 34 0 -2
BITMAP
000000
000000
000000
000000
1E0E00
0C0400
0C0400
0C0400
0C0400
060800
060800
060800
060800
060800
031000
031000
031000
031000
031000
01A000
01A000
01A000
01A000
00C000
00C000
00C000
00C000
000000
000000
000000
000000
000000
000000
000000
ENDCHAR

STARTCHAR iso57
ENCODING 87
SWIDTH 480 0
DWIDTH 17 0
BBX 17 34 0 -2
BITMAP
000000
000000
000000
000000
1E0E00
0C0400
0C0400
0C0400
0C0400
0C4400
0C4400
0C4400
0C4400
0C4400
0C4400
064800
064800
06E800
06E800
06A800
06A800
06A800
06A800
06A800
033000
033000
033000
000000
000000
000000
000000
000000
000000
000000
ENDCHAR

STARTCHAR iso58
ENCODING 88
SWIDTH 480 0
DWIDTH 17 0
BBX 17 34 0 -2
BITMAP
000000
000000
000000
000000
1E1C00
0C0800
0C0800
0C1000
061000
062000
062000
034000
034000
034000
01C000
01C000
00C000
016000
016000
016000
023000
023000
043000
041800
081800
081800
1C3C00
000000
000000
000000
000000
000000
000000
000000
ENDCHAR

STARTCHAR iso59
ENCODING 89
SWIDTH 480 0
DWIDTH 17 0
BBX 17 34 0 -2
BITMAP
000000
000000
000000
000000
1E1C00
0C0800
0C0800
0C1800
061000
061000
063000
032000
032000
036000
014000
014000
01C000
01C000
00C000
00C000
00C000
00C000
00C000
00C000
00C000
00C000
01E000
000000
000000
000000
000000
000000
000000
000000
ENDCHAR

STARTCHAR iso5A
ENCODING 90
SWIDTH 480 0
DWIDTH 17 0
BBX 17 34 0 -2
BITMAP
000000
000000
000000
000000
0FFC00
0C0C00
080C00
081800
001800
003000
003000
003000
006000
006000
006000
00C000
018000
018000
018000
030000
030000
030000
060000
060400
0C0400
0C0C00
0FFC00
000000
000000
000000
000000
000000
000000
000000
ENDCHAR

STARTCHAR iso5B
ENCODING 91
SWIDTH 480 0
DWIDTH 17 0
BBX 17 34 0 -2
BITMAP
000000
000000
000000
000000
01F800
018000
018000
018000
018000
018000
018000
018000
018000
018000
018000
018000
018000
018000
018000
018000
018000
018000
018000
018000
018000
018000
01F800
000000
000000
000000
000000
000000
000000
000000
ENDCHAR

STARTCHAR iso5C
ENCODING 92
SWIDTH 480 0
DWIDTH 17 0
BBX 17 34 0 -2
BITMAP
000000
000000
000000
000000
100000
180000
180000
0C0000
0C0000
060000
060000
030000
030000
018000
018000
00C000
00C000
006000
006000
003000
003000
001800
001800
000C00
000C00
000600
000600
000000
000000
000000
000000
000000
000000
000000
ENDCHAR

STARTCHAR iso5D
ENCODING 93
SWIDTH 480 0
DWIDTH 17 0
BBX 17 34 0 -2
BITMAP
000000
000000
000000
000000
07E000
006000
006000
006000
006000
006000
006000
006000
006000
006000
006000
006000
006000
006000
006000
006000
006000
006000
006000
006000
006000
006000
07E000
000000
000000
000000
000000
000000
000000
000000
ENDCHAR

STARTCHAR iso5E
ENCODING 94
SWIDTH 480 0
DWIDTH 17 0
BBX 17 34 0 -2
BITMAP
000000
000000
000000
008000
01C000
036000
063000
0C1800
000000
000000
000000
000000
000000
000000
000000
000000
000000
000000
000000
000000
000000
000000
000000
000000
000000
000000
000000
000000
000000
000000
000000
000000
000000
000000
ENDCHAR

STARTCHAR iso5F
ENCODING 95
SWIDTH 480 0
DWIDTH 17 0
BBX 17 34 0 -2
BITMAP
000000
000000
000000
000000
000000
000000
000000
000000
000000
000000
000000
000000
000000
000000
000000
000000
000000
000000
000000
000000
000000
000000
000000
000000
000000
000000
000000
000000
000000
000000
7FFF00
000000
000000
000000
ENDCHAR

STARTCHAR iso60
ENCODING 96
SWIDTH 480 0
DWIDTH 17 0
BBX 17 34 0 -2
BITMAP
000000
000000
000000
001800
003000
003000
007800
003000
000000
000000
000000
000000
000000
000000
000000
000000
000000
000000
000000
000000
000000
000000
000000
000000
000000
000000
000000
000000
000000
000000
000000
000000
000000
000000
ENDCHAR

STARTCHAR iso61
ENCODING 97
SWIDTH 480 0
DWIDTH 17 0
BBX 17 34 0 -2
BITMAP
000000
000000
000000
000000
000000
000000
000000
000000
000000
000000
000000
000000
07E000
081000
181800
181800
001800
001800
07D800
0C3800
181800
181800
181800
181800
181800
0C3A00
07CC00
000000
000000
000000
000000
000000
000000
000000
ENDCHAR

STARTCHAR iso62
ENCODING 98
SWIDTH 480 0
DWIDTH 17 0
BBX 17 34 0 -2
BITMAP
000000
000000
000000
000000
060000
0E0000
060000
060000
060000
060000
060000
060000
06E000
073000
061800
060C00
060C00
060C00
060C00
060C00
060C00
060C00
060C00
060C00
061800
073000
04E000
000000
000000
000000
000000
000000
000000
000000
ENDCHAR

STARTCHAR iso63
ENCODING 99
SWIDTH 480 0
DWIDTH 17 0
BBX 17 34 0 -2
BITMAP
000000
000000
000000
000000
000000
000000
000000
000000
000000
000000
000000
000000
01E000
061800
060400
0C0C00
0C0C00
0C0000
0C0000
0C0000
0C0000
0C0000
0C0000
0C0400
060400
061800
01E000
000000
000000
000000
000000
000000
000000
000000
ENDCHAR

STARTCHAR iso64
ENCODING 100
SWIDTH 480 0
DWIDTH 17 0
BBX 17 34 0 -2
BITMAP
000000
000000
000000
000000
001800
003800
001800
001800
001800
001800
001800
001800
01D800
063800
061800
0C1800
0C1800
0C1800
0C1800
0C1800
0C1800
0C1800
0C1800
0C1800
0C1800
063800
01DC00
000000
000000
000000
000000
000000
000000
000000
ENDCHAR

STARTCHAR iso65
ENCODING 101
SWIDTH 480 0
DWIDTH 17 0
BBX 17 34 0 -2
BITMAP
000000
000000
000000
000000
000000
000000
000000
000000
000000
000000
000000
000000
000000
03E000
041000
0C1800
0C1800
180C00
180C00
1FFC00
180000
180000
180000
0C0400
0C0400
041800
03E000
000000
000000
000000
000000
000000
000000
000000
ENDCHAR

STARTCHAR iso66
ENCODING 102
SWIDTH 480 0
DWIDTH 17 0
BBX 17 34 0 -2
BITMAP
000000
000000
000000
000000
007000
00D800
00D800
00C000
00C000
00C000
00C000
00C000
0FFC00
00C000
00C000
00C000
00C000
00C000
00C000
00C000
00C000
00C000
00C000
00C000
00C000
00C000
03F000
000000
000000
000000
000000
000000
000000
000000
ENDCHAR

STARTCHAR iso67
ENCODING 103
SWIDTH 480 0
DWIDTH 17 0
BBX 17 34 0 -2
BITMAP
000000
000000
000000
000000
000000
000000
000000
000000
000000
000000
000000
000000
01DC00
063400
0C1800
0C1800
0C1800
063000
03C000
040000
07E000
03F800
0C1C00
180C00
180C00
180C00
180C00
0C1800
03E000
000000
000000
000000
000000
000000
ENDCHAR

STARTCHAR iso68
ENCODING 104
SWIDTH 480 0
DWIDTH 17 0
BBX 17 34 0 -2
BITMAP
000000
000000
000000
000000
060000
0E0000
060000
060000
060000
060000
060000
060000
06F000
070C00
060C00
060C00
060C00
060C00
060C00
060C00
060C00
060C00
060C00
060C00
060C00
060C00
0F1E00
000000
000000
000000
000000
000000
000000
000000
ENDCHAR

STARTCHAR iso69
ENCODING 105
SWIDTH 480 0
DWIDTH 17 0
BBX 17 34 0 -2
BITMAP
000000
000000
000000
000000
000000
000000
00C000
01E000
00C000
000000
000000
000000
00C000
03C000
00C000
00C000
00C000
00C000
00C000
00C000
00C000
00C000
00C000
00C000
00C000
00C000
01E000
000000
000000
000000
000000
000000
000000
000000
ENDCHAR

STARTCHAR iso6A
ENCODING 106
SWIDTH 480 0
DWIDTH 17 0
BBX 17 34 0 -2
BITMAP
000000
000000
000000
000000
000000
000000
003000
007800
003000
000000
000000
000000
003000
00F000
003000
003000
003000
003000
003000
003000
003000
003000
003000
003000
003000
003000
063000
063000
022000
01C000
000000
000000
000000
000000
ENDCHAR

STARTCHAR iso6B
ENCODING 107
SWIDTH 480 0
DWIDTH 17 0
BBX 17 34 0 -2
BITMAP
000000
000000
000000
000000
060000
0E0000
060000
060000
060000
060000
060000
060000
063C00
061800
063000
066000
06C000
07C000
07C000
066000
066000
063000
063000
061800
061800
060C00
0F1E00
000000
000000
000000
000000
000000
000000
000000
ENDCHAR

STARTCHAR iso6C
ENCODING 108
SWIDTH 480 0
DWIDTH 17 0
BBX 17 34 0 -2
BITMAP
000000
000000
000000
000000
00C000
01C000
00C000
00C000
00C000
00C000
00C000
00C000
00C000
00C000
00C000
00C000
00C000
00C000
00C000
00C000
00C000
00C000
00C000
00C000
00C000
00C000
03F000
000000
000000
000000
000000
000000
000000
000000
ENDCHAR

STARTCHAR iso6D
ENCODING 109
SWIDTH 480 0
DWIDTH 17 0
BBX 17 34 0 -2
BITMAP
000000
000000
000000
000000
000000
000000
000000
000000
000000
000000
000000
000000
07B800
1CCC00
0CCC00
0CCC00
0CCC00
0CCC00
0CCC00
0CCC00
0CCC00
0CCC00
0CCC00
0CCC00
0CCC00
0CCC00
1EDE00
000000
000000
000000
000000
000000
000000
000000
ENDCHAR

STARTCHAR iso6E
ENCODING 110
SWIDTH 480 0
DWIDTH 17 0
BBX 17 34 0 -2
BITMAP
000000
000000
000000
000000
000000
000000
000000
000000
000000
000000
000000
000000
0DF000
1E1800
0C0C00
0C0C00
0C0C00
0C0C00
0C0C00
0C0C00
0C0C00
0C0C00
0C0C00
0C0C00
0C0C00
0C0C00
1E1E00
000000
000000
000000
000000
000000
000000
000000
ENDCHAR

STARTCHAR iso6F
ENCODING 111
SWIDTH 480 0
DWIDTH 17 0
BBX 17 34 0 -2
BITMAP
000000
000000
000000
000000
000000
000000
000000
000000
000000
000000
000000
000000
01E000
061800
061800
0C0C00
0C0C00
0C0C00
0C0C00
0C0C00
0C0C00
0C0C00
0C0C00
0C0C00
061800
061800
01E000
000000
000000
000000
000000
000000
000000
000000
ENDCHAR

STARTCHAR iso70
ENCODING 112
SWIDTH 480 0
DWIDTH 17 0
BBX 17 34 0 -2
BITMAP
000000
000000
000000
000000
000000
000000
000000
000000
000000
000000
000000
000000
0DE000
1E1800
0C1800
0C0C00
0C0C00
0C0C00
0C0C00
0C0C00
0C0C00
0C0C00
0C0C00
0C1800
0E1800
0DE000
0C0000
0C0000
0C0000
1E0000
000000
000000
000000
000000
ENDCHAR

STARTCHAR iso71
ENCODING 113
SWIDTH 480 0
DWIDTH 17 0
BBX 17 34 0 -2
BITMAP
000000
000000
000000
000000
000000
000000
000000
000000
000000
000000
000000
000000
01E600
061C00
060C00
0C0C00
0C0C00
0C0C00
0C0C00
0C0C00
0C0C00
0C0C00
0C0C00
0C0C00
060C00
061C00
01EC00
000C00
000C00
001E00
000000
000000
000000
000000
ENDCHAR

STARTCHAR iso72
ENCODING 114
SWIDTH 480 0
DWIDTH 17 0
BBX 17 34 0 -2
BITMAP
000000
000000
000000
000000
000000
000000
000000
000000
000000
000000
000000
000000
067000
0EF800
070C00
060C00
060000
060000
060000
060000
060000
060000
060000
060000
060000
060000
0F0000
000000
000000
000000
000000
000000
000000
000000
ENDCHAR

STARTCHAR iso73
ENCODING 115
SWIDTH 480 0
DWIDTH 17 0
BBX 17 34 0 -2
BITMAP
000000
000000
000000
000000
000000
000000
000000
000000
000000
000000
000000
000000
01E400
061C00
0C0C00
0C0400
0E0000
070000
03C000
00E000
003800
000C00
000C00
100C00
181C00
1C3800
13C000
000000
000000
000000
000000
000000
000000
000000
ENDCHAR

STARTCHAR iso74
ENCODING 116
SWIDTH 480 0
DWIDTH 17 0
BBX 17 34 0 -2
BITMAP
000000
000000
000000
000000
000000
000000
000000
018000
018000
018000
018000
038000
0FF800
018000
018000
018000
018000
018000
018000
018000
018000
018000
018000
018000
018800
019000
00E000
000000
000000
000000
000000
000000
000000
000000
ENDCHAR

STARTCHAR iso75
ENCODING 117
SWIDTH 480 0
DWIDTH 17 0
BBX 17 34 0 -2
BITMAP
000000
000000
000000
000000
000000
000000
000000
000000
000000
000000
000000
000000
181800
383800
181800
181800
181800
181800
181800
181800
181800
181800
181800
181800
183800
185A00
0F8C00
000000
000000
000000
000000
000000
000000
000000
ENDCHAR

STARTCHAR iso76
ENCODING 118
SWIDTH 480 0
DWIDTH 17 0
BBX 17 34 0 -2
BITMAP
000000
000000
000000
000000
000000
000000
000000
000000
000000
000000
000000
000000
1E0E00
0C0400
0C0400
0C0400
060800
060800
060800
031000
031000
031000
01A000
01A000
01A000
00C000
00C000
000000
000000
000000
000000
000000
000000
000000
ENDCHAR

STARTCHAR iso77
ENCODING 119
SWIDTH 480 0
DWIDTH 17 0
BBX 17 34 0 -2
BITMAP
000000
000000
000000
000000
000000
000000
000000
000000
000000
000000
000000
000000
1E0E00
0C6400
0C6400
0C6400
0C6400
06EC00
06A800
06A800
06A800
06A800
03B800
033000
033000
033000
033000
000000
000000
000000
000000
000000
000000
000000
ENDCHAR

STARTCHAR iso78
ENCODING 120
SWIDTH 480 0
DWIDTH 17 0
BBX 17 34 0 -2
BITMAP
000000
000000
000000
000000
000000
000000
000000
000000
000000
000000
000000
000000
1E0C00
0C0800
0C1000
061000
062000
032000
034000
01C000
01C000
026000
026000
043000
041800
081800
183C00
000000
000000
000000
000000
000000
000000
000000
ENDCHAR

STARTCHAR iso79
ENCODING 121
SWIDTH 480 0
DWIDTH 17 0
BBX 17 34 0 -2
BITMAP
000000
000000
000000
000000
000000
000000
000000
000000
000000
000000
000000
000000
1E0E00
0C0400
0C0800
0C0800
061000
061000
061000
062000
032000
032000
034000
034000
01C000
01C000
018000
188000
190000
060000
000000
000000
000000
000000
ENDCHAR

STARTCHAR iso7A
ENCODING 122
SWIDTH 480 0
DWIDTH 17 0
BBX 17 34 0 -2
BITMAP
000000
000000
000000
000000
000000
000000
000000
000000
000000
000000
000000
000000
0FFC00
0C0C00
080C00
081800
001800
003000
006000
00C000
018000
030000
060000
060400
0C0400
0C0C00
0FFC00
000000
000000
000000
000000
000000
000000
000000
ENDCHAR

STARTCHAR iso7B
ENCODING 123
SWIDTH 480 0
DWIDTH 17 0
BBX 17 34 0 -2
BITMAP
000000
000000
000000
001800
002000
002000
006000
006000
006000
006000
006000
006000
006000
004000
00C000
018000
00C000
004000
006000
006000
006000
006000
006000
006000
006000
002000
002000
001800
000000
000000
000000
000000
000000
000000
ENDCHAR

STARTCHAR iso7C
ENCODING 124
SWIDTH 480 0
DWIDTH 17 0
BBX 17 34 0 -2
BITMAP
000000
000000
000000
000000
00C000
00C000
00C000
00C000
00C000
00C000
00C000
00C000
00C000
00C000
00C000
00C000
00C000
00C000
00C000
00C000
00C000
00C000
00C000
00C000
00C000
00C000
00C000
00C000
000000
000000
000000
000000
000000
000000
ENDCHAR

STARTCHAR iso7D
ENCODING 125
SWIDTH 480 0
DWIDTH 17 0
BBX 17 34 0 -2
BITMAP
000000
000000
000000
0C0000
020000
020000
030000
030000
030000
030000
030000
030000
030000
010000
018000
00C000
018000
010000
030000
030000
030000
030000
030000
030000
030000
020000
020000
0C0000
000000
000000
000000
000000
000000
000000
ENDCHAR

STARTCHAR iso7E
ENCODING 126
SWIDTH 480 0
DWIDTH 17 0
BBX 17 34 0 -2
BITMAP
000000
000000
000000
000000
000000
000000
000000
000000
000000
000000
000000
000000
000000
038400
07C400
08F800
087000
000000
000000
000000
000000
000000
000000
000000
000000
000000
000000
000000
000000
000000
000000
000000
000000
000000
ENDCHAR

STARTCHAR iso7F
ENCODING 127
SWIDTH 480 0
DWIDTH 17 0
BBX 17 34 0 -2
BITMAP
000000
000000
333300
333300
333300
333300
0CCC00
0CCC00
0CCC00
0CCC00
333300
333300
333300
333300
0CCC00
0CCC00
0CCC00
0CCC00
333300
333300
333300
333300
0CCC00
0CCC00
0CCC00
0CCC00
333300
333300
333300
333300
0CCC00
0CCC00
000000
000000
ENDCHAR

STARTCHAR iso80
ENCODING 128
SWIDTH 480 0
DWIDTH 17 0
BBX 17 34 0 -2
BITMAP
000000
000000
000000
000000
070000
18C000
306000
306000
18C000
070000
18C000
306000
306000
18C000
070000
000000
007C00
00C600
018300
018300
018300
018300
018300
018300
018300
00C600
007C00
000000
000000
000000
000000
000000
000000
000000
ENDCHAR

STARTCHAR iso81
ENCODING 129
SWIDTH 480 0
DWIDTH 17 0
BBX 17 34 0 -2
BITMAP
000000
000000
000000
000000
070000
18C000
306000
306000
18C000
070000
18C000
306000
306000
18C000
070000
000000
001800
003800
007800
001800
001800
001800
001800
001800
001800
001800
007E00
000000
000000
000000
000000
000000
000000
000000
ENDCHAR

STARTCHAR iso82
ENCODING 130
SWIDTH 480 0
DWIDTH 17 0
BBX 17 34 0 -2
BITMAP
000000
000000
000000
000000
070000
18C000
306000
306000
18C000
070000
18C000
306000
306000
18C000
070000
000000
007C00
00C600
018300
018300
00C600
000C00
003000
00C000
018100
01FF00
01FF00
000000
000000
000000
000000
000000
000000
000000
ENDCHAR

STARTCHAR iso83
ENCODING 131
SWIDTH 480 0
DWIDTH 17 0
BBX 17 34 0 -2
BITMAP
000000
000000
000000
000000
070000
18C000
306000
306000
18C000
070000
18C000
306000
306000
18C000
070000
000000
007C00
00C600
018300
018300
000600
007C00
000600
018300
018300
00C600
007C00
000000
000000
000000
000000
000000
000000
000000
ENDCHAR

STARTCHAR iso84
ENCODING 132
SWIDTH 480 0
DWIDTH 17 0
BBX 17 34 0 -2
BITMAP
000000
000000
000000
000000
070000
18C000
306000
306000
18C000
070000
18C000
306000
306000
18C000
070000
000000
000C00
001C00
003C00
006C00
00CC00
018C00
018C00
01FE00
000C00
000C00
001E00
000000
000000
000000
000000
000000
000000
000000
ENDCHAR

STARTCHAR iso85
ENCODING 133
SWIDTH 480 0
DWIDTH 17 0
BBX 17 34 0 -2
BITMAP
000000
000000
000000
000000
070000
18C000
306000
306000
18C000
070000
18C000
306000
306000
18C000
070000
000000
01FE00
01FC00
010000
010000
017C00
018600
010300
000300
010300
008600
007800
000000
000000
000000
000000
000000
000000
000000
ENDCHAR

STARTCHAR iso86
ENCODING 134
SWIDTH 480 0
DWIDTH 17 0
BBX 17 34 0 -2
BITMAP
000000
000000
000000
000000
070000
18C000
306000
306000
18C000
070000
18C000
306000
306000
18C000
070000
000000
007C00
00C600
018300
018300
018000
01BC00
01C600
018300
018300
00C600
007C00
000000
000000
000000
000000
000000
000000
000000
ENDCHAR

STARTCHAR iso87
ENCODING 135
SWIDTH 480 0
DWIDTH 17 0
BBX 17 34 0 -2
BITMAP
000000
000000
000000
000000
070000
18C000
306000
306000
18C000
070000
18C000
306000
306000
18C000
070000
000000
01FF00
01FF00
010300
000600
000C00
001800
001000
003000
003000
003000
003000
000000
000000
000000
000000
000000
000000
000000
ENDCHAR

STARTCHAR iso88
ENCODING 136
SWIDTH 480 0
DWIDTH 17 0
BBX 17 34 0 -2
BITMAP
000000
000000
000000
000000
070000
18C000
306000
306000
18C000
070000
18C000
306000
306000
18C000
070000
000000
003800
00C600
018300
018300
00C600
003800
00C600
018300
018300
00C600
003800
000000
000000
000000
000000
000000
000000
000000
ENDCHAR

STARTCHAR iso89
ENCODING 137
SWIDTH 480 0
DWIDTH 17 0
BBX 17 34 0 -2
BITMAP
000000
000000
000000
000000
070000
18C000
306000
306000
18C000
070000
18C000
306000
306000
18C000
070000
000000
007C00
00C600
018300
018300
00C700
007B00
000300
018300
018300
008600
007C00
000000
000000
000000
000000
000000
000000
000000
ENDCHAR

STARTCHAR iso8A
ENCODING 138
SWIDTH 480 0
DWIDTH 17 0
BBX 17 34 0 -2
BITMAP
000000
000000
000000
000000
070000
18C000
306000
306000
18C000
070000
18C000
306000
306000
18C000
070000
000000
001000
003800
003800
003800
004C00
004C00
004C00
00FE00
008600
008600
01CF00
000000
000000
000000
000000
000000
000000
000000
ENDCHAR

STARTCHAR iso8B
ENCODING 139
SWIDTH 480 0
DWIDTH 17 0
BBX 17 34 0 -2
BITMAP
000000
000000
000000
000000
070000
18C000
306000
306000
18C000
070000
18C000
306000
306000
18C000
070000
000000
01FC00
00C600
00C300
00C300
00C200
00FC00
00C200
00C300
00C300
00C600
01FC00
000000
000000
000000
000000
000000
000000
000000
ENDCHAR

STARTCHAR iso8C
ENCODING 140
SWIDTH 480 0
DWIDTH 17 0
BBX 17 34 0 -2
BITMAP
000000
000000
000000
000000
070000
18C000
306000
306000
18C000
070000
18C000
306000
306000
18C000
070000
000000
007900
00C500
00C300
018100
018000
018000
018000
018100
00C100
00C200
007C00
000000
000000
000000
000000
000000
000000
000000
ENDCHAR

STARTCHAR iso8D
ENCODING 141
SWIDTH 480 0
DWIDTH 17 0
BBX 17 34 0 -2
BITMAP
000000
000000
000000
000000
070000
18C000
306000
306000
18C000
070000
18C000
306000
306000
18C000
070000
000000
01FC00
00C600
00C300
00C300
00C300
00C300
00C300
00C300
00C300
00C600
01FC00
000000
000000
000000
000000
000000
000000
000000
ENDCHAR

STARTCHAR iso8E
ENCODING 142
SWIDTH 480 0
DWIDTH 17 0
BBX 17 34 0 -2
BITMAP
000000
000000
000000
000000
070000
18C000
306000
306000
18C000
070000
18C000
306000
306000
18C000
070000
000000
01FF00
00C300
00C100
00C000
00C400
00FC00
00C400
00C000
00C100
00C300
01FF00
000000
000000
000000
000000
000000
000000
000000
ENDCHAR

STARTCHAR iso8F
ENCODING 143
SWIDTH 480 0
DWIDTH 17 0
BBX 17 34 0 -2
BITMAP
000000
000000
000000
000000
070000
18C000
306000
306000
18C000
070000
18C000
306000
306000
18C000
070000
000000
01FF00
00C300
00C100
00C000
00C400
00FC00
00C400
00C000
00C000
00C000
01E000
000000
000000
000000
000000
000000
000000
000000
ENDCHAR

STARTCHAR iso90
ENCODING 144
SWIDTH 480 0
DWIDTH 17 0
BBX 17 34 0 -2
BITMAP
000000
000000
000000
000000
0F8000
18C000
306000
306000
18E000
0F6000
006000
306000
306000
10C000
0F8000
000000
007C00
00C600
018300
018300
018300
018300
018300
018300
018300
00C600
007C00
000000
000000
000000
000000
000000
000000
000000
ENDCHAR

STARTCHAR iso91
ENCODING 145
SWIDTH 480 0
DWIDTH 17 0
BBX 17 34 0 -2
BITMAP
000000
000000
000000
000000
0F8000
18C000
306000
306000
18E000
0F6000
006000
306000
306000
10C000
0F8000
000000
001800
003800
007800
001800
001800
001800
001800
001800
001800
001800
007E00
000000
000000
000000
000000
000000
000000
000000
ENDCHAR

STARTCHAR iso92
ENCODING 146
SWIDTH 480 0
DWIDTH 17 0
BBX 17 34 0 -2
BITMAP
000000
000000
000000
000000
0F8000
18C000
306000
306000
18E000
0F6000
006000
306000
306000
10C000
0F8000
000000
007C00
00C600
018300
018300
00C600
000C00
003000
00C000
018100
01FF00
01FF00
000000
000000
000000
000000
000000
000000
000000
ENDCHAR

STARTCHAR iso93
ENCODING 147
SWIDTH 480 0
DWIDTH 17 0
BBX 17 34 0 -2
BITMAP
000000
000000
000000
000000
0F8000
18C000
306000
306000
18E000
0F6000
006000
306000
306000
10C000
0F8000
000000
007C00
00C600
018300
018300
000600
007C00
000600
018300
018300
00C600
007C00
000000
000000
000000
000000
000000
000000
000000
ENDCHAR

STARTCHAR iso94
ENCODING 148
SWIDTH 480 0
DWIDTH 17 0
BBX 17 34 0 -2
BITMAP
000000
000000
000000
000000
0F8000
18C000
306000
306000
18E000
0F6000
006000
306000
306000
10C000
0F8000
000000
000C00
001C00
003C00
006C00
00CC00
018C00
018C00
01FE00
000C00
000C00
001E00
000000
000000
000000
000000
000000
000000
000000
ENDCHAR

STARTCHAR iso95
ENCODING 149
SWIDTH 480 0
DWIDTH 17 0
BBX 17 34 0 -2
BITMAP
000000
000000
000000
000000
0F8000
18C000
306000
306000
18E000
0F6000
006000
306000
306000
10C000
0F8000
000000
01FE00
01FC00
010000
010000
017C00
018600
010300
000300
010300
008600
007800
000000
000000
000000
000000
000000
000000
000000
ENDCHAR

STARTCHAR iso96
ENCODING 150
SWIDTH 480 0
DWIDTH 17 0
BBX 17 34 0 -2
BITMAP
000000
000000
000000
000000
0F8000
18C000
306000
306000
18E000
0F6000
006000
306000
306000
10C000
0F8000
000000
007C00
00C600
018300
018300
018000
01BC00
01C600
018300
018300
00C600
007C00
000000
000000
000000
000000
000000
000000
000000
ENDCHAR

STARTCHAR iso97
ENCODING 151
SWIDTH 480 0
DWIDTH 17 0
BBX 17 34 0 -2
BITMAP
000000
000000
000000
000000
0F8000
18C000
306000
306000
18E000
0F6000
006000
306000
306000
10C000
0F8000
000000
01FF00
01FF00
010300
000600
000C00
001800
001000
003000
003000
003000
003000
000000
000000
000000
000000
000000
000000
000000
ENDCHAR

STARTCHAR iso98
ENCODING 152
SWIDTH 480 0
DWIDTH 17 0
BBX 17 34 0 -2
BITMAP
000000
000000
000000
000000
0F8000
18C000
306000
306000
18E000
0F6000
006000
306000
306000
10C000
0F8000
000000
003800
00C600
018300
018300
00C600
003800
00C600
018300
018300
00C600
003800
000000
000000
000000
000000
000000
000000
000000
ENDCHAR

STARTCHAR iso99
ENCODING 153
SWIDTH 480 0
DWIDTH 17 0
BBX 17 34 0 -2
BITMAP
000000
000000
000000
000000
0F8000
18C000
306000
306000
18E000
0F6000
006000
306000
306000
10C000
0F8000
000000
007C00
00C600
018300
018300
00C700
007B00
000300
018300
018300
008600
007C00
000000
000000
000000
000000
000000
000000
000000
ENDCHAR

STARTCHAR iso9A
ENCODING 154
SWIDTH 480 0
DWIDTH 17 0
BBX 17 34 0 -2
BITMAP
000000
000000
000000
000000
0F8000
18C000
306000
306000
18E000
0F6000
006000
306000
306000
10C000
0F8000
000000
001000
003800
003800
003800
004C00
004C00
004C00
00FE00
008600
008600
01CF00
000000
000000
000000
000000
000000
000000
000000
ENDCHAR

STARTCHAR iso9B
ENCODING 155
SWIDTH 480 0
DWIDTH 17 0
BBX 17 34 0 -2
BITMAP
000000
000000
000000
000000
0F8000
18C000
306000
306000
18E000
0F6000
006000
306000
306000
10C000
0F8000
000000
01FC00
00C600
00C300
00C300
00C200
00FC00
00C200
00C300
00C300
00C600
01FC00
000000
000000
000000
000000
000000
000000
000000
ENDCHAR

STARTCHAR iso9C
ENCODING 156
SWIDTH 480 0
DWIDTH 17 0
BBX 17 34 0 -2
BITMAP
000000
000000
000000
000000
0F8000
18C000
306000
306000
18E000
0F6000
006000
306000
306000
10C000
0F8000
000000
007900
00C500
00C300
018100
018000
018000
018000
018100
00C100
00C200
007C00
000000
000000
000000
000000
000000
000000
000000
ENDCHAR

STARTCHAR iso9D
ENCODING 157
SWIDTH 480 0
DWIDTH 17 0
BBX 17 34 0 -2
BITMAP
000000
000000
000000
000000
0F8000
18C000
306000
306000
18E000
0F6000
006000
306000
306000
10C000
0F8000
000000
01FC00
00C600
00C300
00C300
00C300
00C300
00C300
00C300
00C300
00C600
01FC00
000000
000000
000000
000000
000000
000000
000000
ENDCHAR

STARTCHAR iso9E
ENCODING 158
SWIDTH 480 0
DWIDTH 17 0
BBX 17 34 0 -2
BITMAP
000000
000000
000000
000000
0F8000
18C000
306000
306000
18E000
0F6000
006000
306000
306000
10C000
0F8000
000000
01FF00
00C300
00C100
00C000
00C400
00FC00
00C400
00C000
00C100
00C300
01FF00
000000
000000
000000
000000
000000
000000
000000
ENDCHAR

STARTCHAR iso9F
ENCODING 159
SWIDTH 480 0
DWIDTH 17 0
BBX 17 34 0 -2
BITMAP
000000
000000
000000
000000
0F8000
18C000
306000
306000
18E000
0F6000
006000
306000
306000
10C000
0F8000
000000
01FF00
00C300
00C100
00C000
00C400
00FC00
00C400
00C000
00C000
00C000
01F000
000000
000000
000000
000000
000000
000000
000000
ENDCHAR

STARTCHAR isoA0
ENCODING 160
SWIDTH 480 0
DWIDTH 17 0
BBX 17 34 0 -2
BITMAP
000000
000000
000000
000000
020000
070000
070000
070000
098000
098000
098000
1FC000
10C000
10C000
39E000
000000
007C00
00C600
018300
018300
018300
018300
018300
018300
018300
00C600
007C00
000000
000000
000000
000000
000000
000000
000000
ENDCHAR

STARTCHAR isoA1
ENCODING 161
SWIDTH 480 0
DWIDTH 17 0
BBX 17 34 0 -2
BITMAP
000000
000000
000000
000000
020000
070000
070000
070000
098000
098000
098000
1FC000
10C000
10C000
39E000
000000
001800
003800
007800
001800
001800
001800
001800
001800
001800
001800
007E00
000000
000000
000000
000000
000000
000000
000000
ENDCHAR

STARTCHAR isoA2
ENCODING 162
SWIDTH 480 0
DWIDTH 17 0
BBX 17 34 0 -2
BITMAP
000000
000000
000000
000000
020000
070000
070000
070000
098000
098000
098000
1FC000
10C000
10C000
39E000
000000
007C00
00C600
018300
018300
00C600
000C00
003000
00C000
018100
01FF00
01FF00
000000
000000
000000
000000
000000
000000
000000
ENDCHAR

STARTCHAR isoA3
ENCODING 163
SWIDTH 480 0
DWIDTH 17 0
BBX 17 34 0 -2
BITMAP
000000
000000
000000
000000
020000
070000
070000
070000
098000
098000
098000
1FC000
10C000
10C000
39E000
000000
007C00
00C600
018300
018300
000600
007C00
000600
018300
018300
00C600
007C00
000000
000000
000000
000000
000000
000000
000000
ENDCHAR

STARTCHAR isoA4
ENCODING 164
SWIDTH 480 0
DWIDTH 17 0
BBX 17 34 0 -2
BITMAP
000000
000000
000000
000000
020000
070000
070000
070000
098000
098000
098000
1FC000
10C000
10C000
39E000
000000
000C00
001C00
003C00
006C00
00CC00
018C00
018C00
01FE00
000C00
000C00
001E00
000000
000000
000000
000000
000000
000000
000000
ENDCHAR

STARTCHAR isoA5
ENCODING 165
SWIDTH 480 0
DWIDTH 17 0
BBX 17 34 0 -2
BITMAP
000000
000000
000000
000000
020000
070000
070000
070000
098000
098000
098000
1FC000
10C000
10C000
39E000
000000
01FE00
01FC00
010000
010000
017C00
018600
010300
000300
010300
008600
007800
000000
000000
000000
000000
000000
000000
000000
ENDCHAR

STARTCHAR isoA6
ENCODING 166
SWIDTH 480 0
DWIDTH 17 0
BBX 17 34 0 -2
BITMAP
000000
000000
000000
000000
020000
070000
070000
070000
098000
098000
098000
1FC000
10C000
10C000
39E000
000000
007C00
00C600
018300
018300
018000
01BC00
01C600
018300
018300
00C600
007C00
000000
000000
000000
000000
000000
000000
000000
ENDCHAR

STARTCHAR isoA7
ENCODING 167
SWIDTH 480 0
DWIDTH 17 0
BBX 17 34 0 -2
BITMAP
000000
000000
000000
000000
020000
070000
070000
070000
098000
098000
098000
1FC000
10C000
10C000
39E000
000000
01FF00
01FF00
010300
000600
000C00
001800
001000
003000
003000
003000
003000
000000
000000
000000
000000
000000
000000
000000
ENDCHAR

STARTCHAR isoA8
ENCODING 168
SWIDTH 480 0
DWIDTH 17 0
BBX 17 34 0 -2
BITMAP
000000
000000
000000
000000
020000
070000
070000
070000
098000
098000
098000
1FC000
10C000
10C000
39E000
000000
003800
00C600
018300
018300
00C600
003800
00C600
018300
018300
00C600
003800
000000
000000
000000
000000
000000
000000
000000
ENDCHAR

STARTCHAR isoA9
ENCODING 169
SWIDTH 480 0
DWIDTH 17 0
BBX 17 34 0 -2
BITMAP
000000
000000
000000
000000
020000
070000
070000
070000
098000
098000
098000
1FC000
10C000
10C000
39E000
000000
007C00
00C600
018300
018300
00C700
007B00
000300
018300
018300
008600
007C00
000000
000000
000000
000000
000000
000000
000000
ENDCHAR

STARTCHAR isoAA
ENCODING 170
SWIDTH 480 0
DWIDTH 17 0
BBX 17 34 0 -2
BITMAP
000000
000000
000000
000000
020000
070000
070000
070000
098000
098000
098000
1FC000
10C000
10C000
39E000
000000
001000
003800
003800
003800
004C00
004C00
004C00
00FE00
008600
008600
01CF00
000000
000000
000000
000000
000000
000000
000000
ENDCHAR

STARTCHAR isoAB
ENCODING 171
SWIDTH 480 0
DWIDTH 17 0
BBX 17 34 0 -2
BITMAP
000000
000000
000000
000000
020000
070000
070000
070000
098000
098000
098000
1FC000
10C000
10C000
39E000
000000
01FC00
00C600
00C300
00C300
00C200
00FC00
00C200
00C300
00C300
00C600
01FC00
000000
000000
000000
000000
000000
000000
000000
ENDCHAR

STARTCHAR isoAC
ENCODING 172
SWIDTH 480 0
DWIDTH 17 0
BBX 17 34 0 -2
BITMAP
000000
000000
000000
000000
020000
070000
070000
070000
098000
098000
098000
1FC000
10C000
10C000
39E000
000000
007900
00C500
00C300
018100
018000
018000
018000
018100
00C100
00C200
007C00
000000
000000
000000
000000
000000
000000
000000
ENDCHAR

STARTCHAR isoAD
ENCODING 173
SWIDTH 480 0
DWIDTH 17 0
BBX 17 34 0 -2
BITMAP
000000
000000
000000
000000
020000
070000
070000
070000
098000
098000
098000
1FC000
10C000
10C000
39E000
000000
01FC00
00C600
00C300
00C300
00C300
00C300
00C300
00C300
00C200
00C600
01FC00
000000
000000
000000
000000
000000
000000
000000
ENDCHAR

STARTCHAR isoAE
ENCODING 174
SWIDTH 480 0
DWIDTH 17 0
BBX 17 34 0 -2
BITMAP
000000
000000
000000
000000
020000
070000
070000
070000
098000
098000
098000
1FC000
10C000
10C000
39E000
000000
01FF00
00C300
00C100
00C000
00C400
00FC00
00C400
00C000
00C100
00C300
01FF00
000000
000000
000000
000000
000000
000000
000000
ENDCHAR

STARTCHAR isoAF
ENCODING 175
SWIDTH 480 0
DWIDTH 17 0
BBX 17 34 0 -2
BITMAP
000000
000000
000000
000000
020000
070000
070000
070000
098000
098000
098000
1FC000
10C000
10C000
39E000
000000
01FF00
00C300
00C100
00C000
00C400
00FC00
00C400
00C000
00C000
00C000
01E000
000000
000000
000000
000000
000000
000000
000000
ENDCHAR

STARTCHAR isoB0
ENCODING 176
SWIDTH 480 0
DWIDTH 17 0
BBX 17 34 0 -2
BITMAP
000000
000000
000000
000000
3F8000
18C000
186000
186000
18C000
1F8000
18C000
186000
186000
18C000
3F8000
000000
007C00
00C600
018300
018300
018300
018300
018300
018300
018300
00C600
007C00
000000
000000
000000
000000
000000
000000
000000
ENDCHAR

STARTCHAR isoB1
ENCODING 177
SWIDTH 480 0
DWIDTH 17 0
BBX 17 34 0 -2
BITMAP
000000
000000
000000
000000
3F8000
18C000
186000
186000
18C000
1F8000
18C000
186000
186000
18C000
3F8000
000000
001800
003800
007800
001800
001800
001800
001800
001800
001800
001800
007E00
000000
000000
000000
000000
000000
000000
000000
ENDCHAR

STARTCHAR isoB2
ENCODING 178
SWIDTH 480 0
DWIDTH 17 0
BBX 17 34 0 -2
BITMAP
000000
000000
000000
000000
3F8000
18C000
186000
186000
18C000
1F8000
18C000
186000
186000
18C000
3F8000
000000
007C00
00C600
018300
018300
00C600
000C00
003000
00C000
018100
01FF00
01FF00
000000
000000
000000
000000
000000
000000
000000
ENDCHAR

STARTCHAR isoB3
ENCODING 179
SWIDTH 480 0
DWIDTH 17 0
BBX 17 34 0 -2
BITMAP
000000
000000
000000
000000
3F8000
18C000
186000
186000
18C000
1F8000
18C000
186000
186000
18C000
3F8000
000000
007C00
00C600
018300
018300
000600
007C00
000600
018300
018300
00C600
007C00
000000
000000
000000
000000
000000
000000
000000
ENDCHAR

STARTCHAR isoB4
ENCODING 180
SWIDTH 480 0
DWIDTH 17 0
BBX 17 34 0 -2
BITMAP
000000
000000
000000
000000
3F8000
18C000
186000
186000
18C000
1F8000
18C000
186000
186000
18C000
3F8000
000000
000C00
001C00
003C00
006C00
00CC00
018C00
018C00
01FE00
000C00
000C00
001E00
000000
000000
000000
000000
000000
000000
000000
ENDCHAR

STARTCHAR isoB5
ENCODING 181
SWIDTH 480 0
DWIDTH 17 0
BBX 17 34 0 -2
BITMAP
000000
000000
000000
000000
3F8000
18C000
186000
186000
18C000
1F8000
18C000
186000
186000
18C000
3F8000
000000
01FE00
01FC00
010000
010000
017C00
018600
010300
000300
010300
008600
007800
000000
000000
000000
000000
000000
000000
000000
ENDCHAR

STARTCHAR isoB6
ENCODING 182
SWIDTH 480 0
DWIDTH 17 0
BBX 17 34 0 -2
BITMAP
000000
000000
000000
000000
3F8000
18C000
186000
186000
18C000
1F8000
18C000
186000
186000
18C000
3F8000
000000
007C00
00C600
018300
018300
018000
01BC00
01C600
018300
018300
00C600
007C00
000000
000000
000000
000000
000000
000000
000000
ENDCHAR

STARTCHAR isoB7
ENCODING 183
SWIDTH 480 0
DWIDTH 17 0
BBX 17 34 0 -2
BITMAP
000000
000000
000000
000000
3F8000
18C000
186000
186000
18C000
1F8000
18C000
186000
186000
18C000
3F8000
000000
01FF00
01FF00
010300
000600
000C00
001800
001000
003000
003000
003000
003000
000000
000000
000000
000000
000000
000000
000000
ENDCHAR

STARTCHAR isoB8
ENCODING 184
SWIDTH 480 0
DWIDTH 17 0
BBX 17 34 0 -2
BITMAP
000000
000000
000000
000000
3F8000
18C000
186000
186000
18C000
1F8000
18C000
186000
186000
18C000
3F8000
000000
003800
00C600
018300
018300
00C600
003800
00C600
018300
018300
00C600
003800
000000
000000
000000
000000
000000
000000
000000
ENDCHAR

STARTCHAR isoB9
ENCODING 185
SWIDTH 480 0
DWIDTH 17 0
BBX 17 34 0 -2
BITMAP
000000
000000
000000
000000
3F8000
18C000
186000
186000
18C000
1F8000
18C000
186000
186000
18C000
3F8000
000000
007C00
00C600
018300
018300
00C700
007B00
000300
018300
018300
008600
007C00
000000
000000
000000
000000
000000
000000
000000
ENDCHAR

STARTCHAR isoBA
ENCODING 186
SWIDTH 480 0
DWIDTH 17 0
BBX 17 34 0 -2
BITMAP
000000
000000
000000
000000
3F8000
18C000
186000
186000
18C000
1F8000
18C000
186000
186000
18C000
3F8000
000000
001000
003800
003800
003800
004C00
004C00
004C00
00FE00
008600
008600
01CF00
000000
000000
000000
000000
000000
000000
000000
ENDCHAR

STARTCHAR isoBB
ENCODING 187
SWIDTH 480 0
DWIDTH 17 0
BBX 17 34 0 -2
BITMAP
000000
000000
000000
000000
3F8000
18C000
186000
186000
18C000
1F8000
18C000
186000
186000
18C000
3F8000
000000
01FC00
00C600
00C300
00C300
00C200
00FC00
00C200
00C300
00C300
00C600
01FC00
000000
000000
000000
000000
000000
000000
000000
ENDCHAR

STARTCHAR isoBC
ENCODING 188
SWIDTH 480 0
DWIDTH 17 0
BBX 17 34 0 -2
BITMAP
000000
000000
000000
000000
3F8000
18C000
186000
186000
18C000
1F8000
18C000
186000
186000
18C000
3F8000
000000
007900
00C500
00C300
018100
018000
018000
018000
018100
00C100
00C200
007C00
000000
000000
000000
000000
000000
000000
000000
ENDCHAR

STARTCHAR isoBD
ENCODING 189
SWIDTH 480 0
DWIDTH 17 0
BBX 17 34 0 -2
BITMAP
000000
000000
000000
000000
3F8000
18C000
186000
186000
18C000
1F8000
18C000
186000
186000
18C000
3F8000
000000
01FC00
00C600
00C300
00C300
00C300
00C300
00C300
00C300
00C200
00C600
01FC00
000000
000000
000000
000000
000000
000000
000000
ENDCHAR

STARTCHAR isoBE
ENCODING 190
SWIDTH 480 0
DWIDTH 17 0
BBX 17 34 0 -2
BITMAP
000000
000000
000000
000000
3F8000
18C000
186000
186000
18C000
1F8000
18C000
186000
186000
18C000
3F8000
000000
01FF00
00C300
00C100
00C000
00C400
00FC00
00C400
00C000
00C100
00C300
01FF00
000000
000000
000000
000000
000000
000000
000000
ENDCHAR

STARTCHAR isoBF
ENCODING 191
SWIDTH 480 0
DWIDTH 17 0
BBX 17 34 0 -2
BITMAP
000000
000000
000000
000000
3F8000
18C000
186000
186000
18C000
1F8000
18C000
186000
186000
18C000
3F8000
000000
01FF00
00C300
00C100
00C000
00C400
00FC00
00C400
00C000
00C000
00C000
01E000
000000
000000
000000
000000
000000
000000
000000
ENDCHAR

STARTCHAR isoC0
ENCODING 192
SWIDTH 480 0
DWIDTH 17 0
BBX 17 34 0 -2
BITMAP
000000
000000
000000
000000
072000
0CA000
18E000
302000
300000
300000
300000
302000
182000
0C4000
078000
000000
007C00
00C600
018300
018300
018300
018300
018300
018300
018300
00C600
007C00
000000
000000
000000
000000
000000
000000
000000
ENDCHAR

STARTCHAR isoC1
ENCODING 193
SWIDTH 480 0
DWIDTH 17 0
BBX 17 34 0 -2
BITMAP
000000
000000
000000
000000
072000
0CA000
18E000
302000
300000
300000
300000
302000
182000
0C4000
078000
000000
001800
003800
007800
001800
001800
001800
001800
001800
001800
001800
007E00
000000
000000
000000
000000
000000
000000
000000
ENDCHAR

STARTCHAR isoC2
ENCODING 194
SWIDTH 480 0
DWIDTH 17 0
BBX 17 34 0 -2
BITMAP
000000
000000
000000
000000
072000
0CA000
18E000
302000
300000
300000
300000
302000
182000
0C4000
078000
000000
007C00
00C600
018300
018300
00C600
000C00
003000
00C000
018100
01FF00
01FF00
000000
000000
000000
000000
000000
000000
000000
ENDCHAR

STARTCHAR isoC3
ENCODING 195
SWIDTH 480 0
DWIDTH 17 0
BBX 17 34 0 -2
BITMAP
000000
000000
000000
000000
072000
0CA000
18E000
302000
300000
300000
300000
302000
182000
0C4000
078000
000000
007C00
00C600
018300
018300
000600
007C00
000600
018300
018300
00C600
007C00
000000
000000
000000
000000
000000
000000
000000
ENDCHAR

STARTCHAR isoC4
ENCODING 196
SWIDTH 480 0
DWIDTH 17 0
BBX 17 34 0 -2
BITMAP
000000
000000
000000
000000
072000
0CA000
18E000
302000
300000
300000
300000
302000
182000
0C4000
078000
000000
000C00
001C00
003C00
006C00
00CC00
018C00
018C00
01FE00
000C00
000C00
001E00
000000
000000
000000
000000
000000
000000
000000
ENDCHAR

STARTCHAR isoC5
ENCODING 197
SWIDTH 480 0
DWIDTH 17 0
BBX 17 34 0 -2
BITMAP
000000
000000
000000
000000
072000
0CA000
18E000
302000
300000
300000
300000
302000
182000
0C4000
078000
000000
01FE00
01FC00
010000
010000
017C00
018600
010300
000300
010300
008600
007800
000000
000000
000000
000000
000000
000000
000000
ENDCHAR

STARTCHAR isoC6
ENCODING 198
SWIDTH 480 0
DWIDTH 17 0
BBX 17 34 0 -2
BITMAP
000000
000000
000000
000000
072000
0CA000
18E000
302000
300000
300000
300000
302000
182000
0C4000
078000
000000
007C00
00C600
018300
018300
018000
01BC00
01C600
018300
018300
00C600
007C00
000000
000000
000000
000000
000000
000000
000000
ENDCHAR

STARTCHAR isoC7
ENCODING 199
SWIDTH 480 0
DWIDTH 17 0
BBX 17 34 0 -2
BITMAP
000000
000000
000000
000000
072000
0CA000
18E000
302000
300000
300000
300000
302000
182000
0C4000
078000
000000
01FF00
01FF00
010300
000600
000C00
001800
001000
003000
003000
003000
003000
000000
000000
000000
000000
000000
000000
000000
ENDCHAR

STARTCHAR isoC8
ENCODING 200
SWIDTH 480 0
DWIDTH 17 0
BBX 17 34 0 -2
BITMAP
000000
000000
000000
000000
072000
0CA000
18E000
302000
300000
300000
300000
302000
182000
0C4000
078000
000000
003800
00C600
018300
018300
00C600
003800
00C600
018300
018300
00C600
003800
000000
000000
000000
000000
000000
000000
000000
ENDCHAR

STARTCHAR isoC9
ENCODING 201
SWIDTH 480 0
DWIDTH 17 0
BBX 17 34 0 -2
BITMAP
000000
000000
000000
000000
072000
0CA000
18E000
302000
300000
300000
300000
302000
182000
0C4000
078000
000000
007C00
00C600
018300
018300
00C700
007B00
000300
018300
018300
008600
007C00
000000
000000
000000
000000
000000
000000
000000
ENDCHAR

STARTCHAR isoCA
ENCODING 202
SWIDTH 480 0
DWIDTH 17 0
BBX 17 34 0 -2
BITMAP
000000
000000
000000
000000
072000
0CA000
18E000
302000
300000
300000
300000
302000
182000
0C4000
078000
000000
001000
003800
003800
003800
004C00
004C00
004C00
00FE00
008600
008600
01CF00
000000
000000
000000
000000
000000
000000
000000
ENDCHAR

STARTCHAR isoCB
ENCODING 203
SWIDTH 480 0
DWIDTH 17 0
BBX 17 34 0 -2
BITMAP
000000
000000
000000
000000
072000
0CA000
18E000
302000
300000
300000
300000
302000
182000
0C4000
078000
000000
01FC00
00C600
00C300
00C300
00C200
00FC00
00C200
00C300
00C300
00C600
01FC00
000000
000000
000000
000000
000000
000000
000000
ENDCHAR

STARTCHAR isoCC
ENCODING 204
SWIDTH 480 0
DWIDTH 17 0
BBX 17 34 0 -2
BITMAP
000000
000000
000000
000000
072000
0CA000
18E000
302000
300000
300000
300000
302000
182000
0C4000
078000
000000
007900
00C500
00C300
018100
018000
018000
018000
018100
00C100
00C200
007C00
000000
000000
000000
000000
000000
000000
000000
ENDCHAR

STARTCHAR isoCD
ENCODING 205
SWIDTH 480 0
DWIDTH 17 0
BBX 17 34 0 -2
BITMAP
000000
000000
000000
000000
072000
0CA000
18E000
302000
300000
300000
300000
302000
182000
0C4000
078000
000000
01FC00
00C600
00C300
00C300
00C300
00C300
00C300
00C300
00C200
00C600
01FC00
000000
000000
000000
000000
000000
000000
000000
ENDCHAR

STARTCHAR isoCE
ENCODING 206
SWIDTH 480 0
DWIDTH 17 0
BBX 17 34 0 -2
BITMAP
000000
000000
000000
000000
072000
0CA000
18E000
302000
300000
300000
300000
302000
182000
0C4000
078000
000000
01FF00
00C300
00C100
00C000
00C400
00FC00
00C400
00C000
00C100
00C300
01FF00
000000
000000
000000
000000
000000
000000
000000
ENDCHAR

STARTCHAR isoCF
ENCODING 207
SWIDTH 480 0
DWIDTH 17 0
BBX 17 34 0 -2
BITMAP
000000
000000
000000
000000
072000
0CA000
18E000
302000
300000
300000
300000
302000
182000
0C4000
078000
000000
01FF00
00C300
00C100
00C000
00C400
00FC00
00C400
00C000
00C000
00C000
01E000
000000
000000
000000
000000
000000
000000
000000
ENDCHAR

STARTCHAR isoD0
ENCODING 208
SWIDTH 480 0
DWIDTH 17 0
BBX 17 34 0 -2
BITMAP
000000
000000
000000
000000
3F8000
18C000
186000
186000
186000
186000
186000
186000
186000
18C000
3F8000
000000
007C00
00C600
018300
018300
018300
018300
018300
018300
018300
00C600
007C00
000000
000000
000000
000000
000000
000000
000000
ENDCHAR

STARTCHAR isoD1
ENCODING 209
SWIDTH 480 0
DWIDTH 17 0
BBX 17 34 0 -2
BITMAP
000000
000000
000000
000000
3F8000
18C000
186000
186000
186000
186000
186000
186000
186000
18C000
3F8000
000000
001800
003800
007800
001800
001800
001800
001800
001800
001800
001800
007E00
000000
000000
000000
000000
000000
000000
000000
ENDCHAR

STARTCHAR isoD2
ENCODING 210
SWIDTH 480 0
DWIDTH 17 0
BBX 17 34 0 -2
BITMAP
000000
000000
000000
000000
3F8000
18C000
186000
186000
186000
186000
186000
186000
186000
18C000
3F8000
000000
007C00
00C600
018300
018300
00C600
000C00
003000
00C000
018100
01FF00
01FF00
000000
000000
000000
000000
000000
000000
000000
ENDCHAR

STARTCHAR isoD3
ENCODING 211
SWIDTH 480 0
DWIDTH 17 0
BBX 17 34 0 -2
BITMAP
000000
000000
000000
000000
3F8000
18C000
186000
186000
186000
186000
186000
186000
186000
18C000
3F8000
000000
007C00
00C600
018300
018300
000600
007C00
000600
018300
018300
00C600
007C00
000000
000000
000000
000000
000000
000000
000000
ENDCHAR

STARTCHAR isoD4
ENCODING 212
SWIDTH 480 0
DWIDTH 17 0
BBX 17 34 0 -2
BITMAP
000000
000000
000000
000000
3F8000
18C000
186000
186000
186000
186000
186000
186000
186000
18C000
3F8000
000000
000C00
001C00
003C00
006C00
00CC00
018C00
018C00
01FE00
000C00
000C00
001E00
000000
000000
000000
000000
000000
000000
000000
ENDCHAR

STARTCHAR isoD5
ENCODING 213
SWIDTH 480 0
DWIDTH 17 0
BBX 17 34 0 -2
BITMAP
000000
000000
000000
000000
3F8000
18C000
186000
186000
186000
186000
186000
186000
186000
18C000
3F8000
000000
01FE00
01FC00
010000
010000
017C00
018600
010300
000300
010300
008600
007800
000000
000000
000000
000000
000000
000000
000000
ENDCHAR

STARTCHAR isoD6
ENCODING 214
SWIDTH 480 0
DWIDTH 17 0
BBX 17 34 0 -2
BITMAP
000000
000000
000000
000000
3F8000
18C000
186000
186000
186000
186000
186000
186000
186000
18C000
3F8000
000000
007C00
00C600
018300
018300
018000
01BC00
01C600
018300
018300
00C600
007C00
000000
000000
000000
000000
000000
000000
000000
ENDCHAR

STARTCHAR isoD7
ENCODING 215
SWIDTH 480 0
DWIDTH 17 0
BBX 17 34 0 -2
BITMAP
000000
000000
000000
000000
3F8000
18C000
186000
186000
186000
186000
186000
186000
186000
18C000
3F8000
000000
01FF00
01FF00
010300
000600
000C00
001800
001000
003000
003000
003000
003000
000000
000000
000000
000000
000000
000000
000000
ENDCHAR

STARTCHAR isoD8
ENCODING 216
SWIDTH 480 0
DWIDTH 17 0
BBX 17 34 0 -2
BITMAP
000000
000000
000000
000000
3F8000
18C000
186000
186000
186000
186000
186000
186000
186000
18C000
3F8000
000000
003800
00C600
018300
018300
00C600
003800
00C600
018300
018300
00C600
003800
000000
000000
000000
000000
000000
000000
000000
ENDCHAR

STARTCHAR isoD9
ENCODING 217
SWIDTH 480 0
DWIDTH 17 0
BBX 17 34 0 -2
BITMAP
000000
000000
000000
000000
3F8000
18C000
186000
186000
186000
186000
186000
186000
186000
18C000
3F8000
000000
007C00
00C600
018300
018300
00C700
007B00
000300
018300
018300
008600
007C00
000000
000000
000000
000000
000000
000000
000000
ENDCHAR

STARTCHAR isoDA
ENCODING 218
SWIDTH 480 0
DWIDTH 17 0
BBX 17 34 0 -2
BITMAP
000000
000000
000000
000000
3F8000
18C000
186000
186000
186000
186000
186000
186000
186000
18C000
3F8000
000000
001000
003800
003800
003800
004C00
004C00
004C00
00FE00
008600
008600
01CF00
000000
000000
000000
000000
000000
000000
000000
ENDCHAR

STARTCHAR isoDB
ENCODING 219
SWIDTH 480 0
DWIDTH 17 0
BBX 17 34 0 -2
BITMAP
000000
000000
000000
000000
3F8000
18C000
186000
186000
186000
186000
186000
186000
186000
18C000
3F8000
000000
01FC00
00C600
00C300
00C300
00C200
00FC00
00C200
00C300
00C300
00C600
01FC00
000000
000000
000000
000000
000000
000000
000000
ENDCHAR

STARTCHAR isoDC
ENCODING 220
SWIDTH 480 0
DWIDTH 17 0
BBX 17 34 0 -2
BITMAP
000000
000000
000000
000000
3F8000
18C000
186000
186000
186000
186000
186000
186000
186000
18C000
3F8000
000000
007900
00C500
00C300
018100
018000
018000
018000
018100
00C100
00C200
007C00
000000
000000
000000
000000
000000
000000
000000
ENDCHAR

STARTCHAR isoDD
ENCODING 221
SWIDTH 480 0
DWIDTH 17 0
BBX 17 34 0 -2
BITMAP
000000
000000
000000
000000
3F8000
18C000
186000
186000
186000
186000
186000
186000
186000
18C000
3F8000
000000
01FC00
00C600
00C300
00C300
00C300
00C300
00C300
00C300
00C200
00C600
01FC00
000000
000000
000000
000000
000000
000000
000000
ENDCHAR

STARTCHAR isoDE
ENCODING 222
SWIDTH 480 0
DWIDTH 17 0
BBX 17 34 0 -2
BITMAP
000000
000000
000000
000000
3F8000
18C000
186000
186000
186000
186000
186000
186000
186000
18C000
3F8000
000000
01FF00
00C300
00C100
00C000
00C400
00FC00
00C400
00C000
00C100
00C300
01FF00
000000
000000
000000
000000
000000
000000
000000
ENDCHAR

STARTCHAR isoDF
ENCODING 223
SWIDTH 480 0
DWIDTH 17 0
BBX 17 34 0 -2
BITMAP
000000
000000
000000
000000
3F8000
18C000
186000
186000
186000
186000
186000
186000
186000
18C000
3F8000
000000
01FF00
00C300
00C100
00C000
00C400
00FC00
00C400
00C000
00C000
00C000
01E000
000000
000000
000000
000000
000000
000000
000000
ENDCHAR

STARTCHAR isoE0
ENCODING 224
SWIDTH 480 0
DWIDTH 17 0
BBX 17 34 0 -2
BITMAP
000000
000000
000000
000000
3FE000
186000
182000
180000
188000
1F8000
188000
180000
182000
186000
3FE000
000000
007C00
00C600
018300
018300
018300
018300
018300
018300
018300
00C600
007C00
000000
000000
000000
000000
000000
000000
000000
ENDCHAR

STARTCHAR isoE1
ENCODING 225
SWIDTH 480 0
DWIDTH 17 0
BBX 17 34 0 -2
BITMAP
000000
000000
000000
000000
3FE000
186000
182000
180000
188000
1F8000
188000
180000
182000
186000
3FE000
000000
001800
003800
007800
001800
001800
001800
001800
001800
001800
001800
007E00
000000
000000
000000
000000
000000
000000
000000
ENDCHAR

STARTCHAR isoE2
ENCODING 226
SWIDTH 480 0
DWIDTH 17 0
BBX 17 34 0 -2
BITMAP
000000
000000
000000
000000
3FE000
186000
182000
180000
188000
1F8000
188000
180000
182000
186000
3FE000
000000
007C00
00C600
018300
018300
00C600
000C00
003000
00C000
018100
01FF00
01FF00
000000
000000
000000
000000
000000
000000
000000
ENDCHAR

STARTCHAR isoE3
ENCODING 227
SWIDTH 480 0
DWIDTH 17 0
BBX 17 34 0 -2
BITMAP
000000
000000
000000
000000
3FE000
186000
182000
180000
188000
1F8000
188000
180000
182000
186000
3FE000
000000
007C00
00C600
018300
018300
000600
007C00
000600
018300
018300
00C600
007C00
000000
000000
000000
000000
000000
000000
000000
ENDCHAR

STARTCHAR isoE4
ENCODING 228
SWIDTH 480 0
DWIDTH 17 0
BBX 17 34 0 -2
BITMAP
000000
000000
000000
000000
3FE000
186000
182000
180000
188000
1F8000
188000
180000
182000
186000
3FE000
000000
000C00
001C00
003C00
006C00
00CC00
018C00
018C00
01FE00
000C00
000C00
001E00
000000
000000
000000
000000
000000
000000
000000
ENDCHAR

STARTCHAR isoE5
ENCODING 229
SWIDTH 480 0
DWIDTH 17 0
BBX 17 34 0 -2
BITMAP
000000
000000
000000
000000
3FE000
186000
182000
180000
188000
1F8000
188000
180000
182000
186000
3FE000
000000
01FE00
01FC00
010000
010000
017C00
018600
010300
000300
010300
008600
007800
000000
000000
000000
000000
000000
000000
000000
ENDCHAR

STARTCHAR isoE6
ENCODING 230
SWIDTH 480 0
DWIDTH 17 0
BBX 17 34 0 -2
BITMAP
000000
000000
000000
000000
3FE000
186000
182000
180000
188000
1F8000
188000
180000
182000
186000
3FE000
000000
007C00
00C600
018300
018300
018000
01BC00
01C600
018300
018300
00C600
007C00
000000
000000
000000
000000
000000
000000
000000
ENDCHAR

STARTCHAR isoE7
ENCODING 231
SWIDTH 480 0
DWIDTH 17 0
BBX 17 34 0 -2
BITMAP
000000
000000
000000
000000
3FE000
186000
182000
180000
188000
1F8000
188000
180000
182000
186000
3FE000
000000
01FF00
01FF00
010300
000600
000C00
001800
001000
003000
003000
003000
003000
000000
000000
000000
000000
000000
000000
000000
ENDCHAR

STARTCHAR isoE8
ENCODING 232
SWIDTH 480 0
DWIDTH 17 0
BBX 17 34 0 -2
BITMAP
000000
000000
000000
000000
3FE000
186000
182000
180000
188000
1F8000
188000
180000
182000
186000
3FE000
000000
003800
00C600
018300
018300
00C600
003800
00C600
018300
018300
00C600
003800
000000
000000
000000
000000
000000
000000
000000
ENDCHAR

STARTCHAR isoE9
ENCODING 233
SWIDTH 480 0
DWIDTH 17 0
BBX 17 34 0 -2
BITMAP
000000
000000
000000
000000
3FE000
186000
182000
180000
188000
1F8000
188000
180000
182000
186000
3FE000
000000
007C00
00C600
018300
018300
00C700
007B00
000300
018300
018300
008600
007C00
000000
000000
000000
000000
000000
000000
000000
ENDCHAR

STARTCHAR isoEA
ENCODING 234
SWIDTH 480 0
DWIDTH 17 0
BBX 17 34 0 -2
BITMAP
000000
000000
000000
000000
3FE000
186000
182000
180000
188000
1F8000
188000
180000
182000
186000
3FE000
000000
001000
003800
003800
003800
004C00
004C00
004C00
00FE00
008600
008600
01CF00
000000
000000
000000
000000
000000
000000
000000
ENDCHAR

STARTCHAR isoEB
ENCODING 235
SWIDTH 480 0
DWIDTH 17 0
BBX 17 34 0 -2
BITMAP
000000
000000
000000
000000
3FE000
186000
182000
180000
188000
1F8000
188000
180000
182000
186000
3FE000
000000
01FC00
00C600
00C300
00C300
00C200
00FC00
00C200
00C300
00C300
00C600
01FC00
000000
000000
000000
000000
000000
000000
000000
ENDCHAR

STARTCHAR isoEC
ENCODING 236
SWIDTH 480 0
DWIDTH 17 0
BBX 17 34 0 -2
BITMAP
000000
000000
000000
000000
3FE000
186000
182000
180000
188000
1F8000
188000
180000
182000
186000
3FE000
000000
007900
00C500
00C300
018100
018000
018000
018000
018100
00C100
00C200
007C00
000000
000000
000000
000000
000000
000000
000000
ENDCHAR

STARTCHAR isoED
ENCODING 237
SWIDTH 480 0
DWIDTH 17 0
BBX 17 34 0 -2
BITMAP
000000
000000
000000
000000
3FE000
186000
182000
180000
188000
1F8000
188000
180000
182000
186000
3FE000
000000
01FC00
00C600
00C300
00C300
00C300
00C300
00C300
00C300
00C200
00C600
01FC00
000000
000000
000000
000000
000000
000000
000000
ENDCHAR

STARTCHAR isoEE
ENCODING 238
SWIDTH 480 0
DWIDTH 17 0
BBX 17 34 0 -2
BITMAP
000000
000000
000000
000000
3FE000
186000
182000
180000
188000
1F8000
188000
180000
182000
186000
3FE000
000000
01FF00
00C300
00C100
00C000
00C400
00FC00
00C400
00C000
00C100
00C300
01FF00
000000
000000
000000
000000
000000
000000
000000
ENDCHAR

STARTCHAR isoEF
ENCODING 239
SWIDTH 480 0
DWIDTH 17 0
BBX 17 34 0 -2
BITMAP
000000
000000
000000
000000
3FE000
186000
182000
180000
188000
1F8000
188000
180000
182000
186000
3FE000
000000
01FF00
00C300
00C100
00C000
00C400
00FC00
00C400
00C000
00C000
00C000
01E000
000000
000000
000000
000000
000000
000000
000000
ENDCHAR

STARTCHAR isoF0
ENCODING 240
SWIDTH 480 0
DWIDTH 17 0
BBX 17 34 0 -2
BITMAP
000000
000000
000000
000000
3FE000
186000
182000
180000
188000
1F8000
188000
180000
180000
180000
3C0000
000000
007C00
00C600
018300
018300
018300
018300
018300
018300
018300
00C600
007C00
000000
000000
000000
000000
000000
000000
000000
ENDCHAR

STARTCHAR isoF1
ENCODING 241
SWIDTH 480 0
DWIDTH 17 0
BBX 17 34 0 -2
BITMAP
000000
000000
000000
000000
3FE000
186000
182000
180000
188000
1F8000
188000
180000
180000
180000
3C0000
000000
001800
003800
007800
001800
001800
001800
001800
001800
001800
001800
007C00
000000
000000
000000
000000
000000
000000
000000
ENDCHAR

STARTCHAR isoF2
ENCODING 242
SWIDTH 480 0
DWIDTH 17 0
BBX 17 34 0 -2
BITMAP
000000
000000
000000
000000
3FE000
186000
182000
180000
188000
1F8000
188000
180000
180000
180000
3C0000
000000
007C00
00C600
018300
018300
00C600
000C00
003000
00C000
018100
01FF00
01FF00
000000
000000
000000
000000
000000
000000
000000
ENDCHAR

STARTCHAR isoF3
ENCODING 243
SWIDTH 480 0
DWIDTH 17 0
BBX 17 34 0 -2
BITMAP
000000
000000
000000
000000
3FE000
186000
182000
180000
188000
1F8000
188000
180000
180000
180000
3C0000
000000
007C00
00C600
018300
018300
000600
007C00
000600
018300
018300
00C600
007C00
000000
000000
000000
000000
000000
000000
000000
ENDCHAR

STARTCHAR isoF4
ENCODING 244
SWIDTH 480 0
DWIDTH 17 0
BBX 17 34 0 -2
BITMAP
000000
000000
000000
000000
3FE000
186000
182000
180000
188000
1F8000
188000
180000
180000
180000
3C0000
000000
000C00
001C00
003C00
006C00
00CC00
018C00
018C00
01FE00
000C00
000C00
001E00
000000
000000
000000
000000
000000
000000
000000
ENDCHAR

STARTCHAR isoF5
ENCODING 245
SWIDTH 480 0
DWIDTH 17 0
BBX 17 34 0 -2
BITMAP
000000
000000
000000
000000
3FE000
186000
182000
180000
188000
1F8000
188000
180000
180000
180000
3C0000
000000
01FE00
01FC00
010000
010000
017C00
018600
010300
000300
010300
008600
007800
000000
000000
000000
000000
000000
000000
000000
ENDCHAR

STARTCHAR isoF6
ENCODING 246
SWIDTH 480 0
DWIDTH 17 0
BBX 17 34 0 -2
BITMAP
000000
000000
000000
000000
3FE000
186000
182000
180000
188000
1F8000
188000
180000
180000
180000
3C0000
000000
007C00
00C600
018300
018300
018000
01BC00
01C600
018300
018300
00C600
007C00
000000
000000
000000
000000
000000
000000
000000
ENDCHAR

STARTCHAR isoF7
ENCODING 247
SWIDTH 480 0
DWIDTH 17 0
BBX 17 34 0 -2
BITMAP
000000
000000
000000
000000
3FE000
186000
182000
180000
188000
1F8000
188000
180000
180000
180000
3C0000
000000
01FF00
01FF00
010300
000600
000C00
001800
001000
003000
003000
003000
003000
000000
000000
000000
000000
000000
000000
000000
ENDCHAR

STARTCHAR isoF8
ENCODING 248
SWIDTH 480 0
DWIDTH 17 0
BBX 17 34 0 -2
BITMAP
000000
000000
000000
000000
3FE000
186000
182000
180000
188000
1F8000
188000
180000
180000
180000
3C0000
000000
003800
00C600
018300
018300
00C600
003800
00C600
018300
018300
00C600
003800
000000
000000
000000
000000
000000
000000
000000
ENDCHAR

STARTCHAR isoF9
ENCODING 249
SWIDTH 480 0
DWIDTH 17 0
BBX 17 34 0 -2
BITMAP
000000
000000
000000
000000
3FE000
186000
182000
180000
188000
1F8000
188000
180000
180000
180000
3C0000
000000
007C00
00C600
018300
018300
00C700
007B00
000300
018300
018300
008600
007C00
000000
000000
000000
000000
000000
000000
000000
ENDCHAR

STARTCHAR isoFA
ENCODING 250
SWIDTH 480 0
DWIDTH 17 0
BBX 17 34 0 -2
BITMAP
000000
000000
000000
000000
3FE000
186000
182000
180000
188000
1F8000
188000
180000
180000
180000
3C0000
000000
001000
003800
003800
003800
004C00
004C00
004C00
00FE00
008600
008600
01CF00
000000
000000
000000
000000
000000
000000
000000
ENDCHAR

STARTCHAR isoFB
ENCODING 251
SWIDTH 480 0
DWIDTH 17 0
BBX 17 34 0 -2
BITMAP
000000
000000
000000
000000
3FE000
186000
182000
180000
188000
1F8000
188000
180000
180000
180000
3C0000
000000
01FC00
00C600
00C300
00C300
00C200
00FC00
00C200
00C300
00C300
00C600
01FC00
000000
000000
000000
000000
000000
000000
000000
ENDCHAR

STARTCHAR isoFC
ENCODING 252
SWIDTH 480 0
DWIDTH 17 0
BBX 17 34 0 -2
BITMAP
000000
000000
000000
000000
3FE000
186000
182000
180000
188000
1F8000
188000
180000
180000
180000
3C0000
000000
007900
00C500
00C300
018100
018000
018000
018000
018100
00C100
00C200
007C00
000000
000000
000000
000000
000000
000000
000000
ENDCHAR

STARTCHAR isoFD
ENCODING 253
SWIDTH 480 0
DWIDTH 17 0
BBX 17 34 0 -2
BITMAP
000000
000000
000000
000000
3FE000
186000
182000
180000
188000
1F8000
188000
180000
180000
180000
3C0000
000000
01FC00
00C600
00C300
00C300
00C300
00C300
00C300
00C300
00C300
00C600
01FC00
000000
000000
000000
000000
000000
000000
000000
ENDCHAR

STARTCHAR isoFE
ENCODING 254
SWIDTH 480 0
DWIDTH 17 0
BBX 17 34 0 -2
BITMAP
000000
000000
000000
000000
3FE000
186000
182000
180000
188000
1F8000
188000
180000
180000
180000
3C0000
000000
01FF00
00C300
00C100
00C000
00C400
00FC00
00C400
00C000
00C100
00C300
01FF00
000000
000000
000000
000000
000000
000000
000000
ENDCHAR

STARTCHAR isoFF
ENCODING 255
SWIDTH 480 0
DWIDTH 17 0
BBX 17 34 0 -2
BITMAP
000000
000000
000000
000000
3FE000
186000
182000
180000
188000
1F8000
188000
180000
180000
180000
3C0000
000000
01FF00
00C300
00C100
00C000
00C400
00FC00
00C400
00C000
00C000
00C000
01E000
000000
000000
000000
000000
000000
000000
000000
ENDCHAR
ENDFONT
